<svg width="22" height="22" viewBox="0 0 22 22" fill="none" xmlns="http://www.w3.org/2000/svg">
<rect width="22" height="22" rx="11" fill="#F90013"/>
<path d="M10.9754 14.1435C11.444 13.669 11.854 13.25 12.2689 12.8351C13.7933 11.3089 15.319 9.78261 16.8453 8.25873C17.1634 7.94059 17.549 7.91552 17.8182 8.18532C18.0844 8.45213 18.0575 8.84548 17.7424 9.16064C15.6694 11.2354 13.5964 13.3097 11.5209 15.3827C11.1604 15.7432 10.8244 15.7408 10.4615 15.3779C8.39322 13.312 6.32677 11.245 4.26092 9.17735C3.94158 8.85742 3.91472 8.476 4.18392 8.20442C4.46148 7.92388 4.82797 7.94536 5.15507 8.27187C7.01917 10.1336 8.88208 11.9971 10.7438 13.8612C10.8202 13.9376 10.8817 14.0283 10.9754 14.1435Z" fill="white"/>
</svg>
