<svg width="82" height="27" viewBox="0 0 82 27" fill="none" xmlns="http://www.w3.org/2000/svg">
<g clip-path="url(#clip0_20_1339)">
<path d="M9.69084 17.0094C9.69084 17.0094 9.65261 17.029 9.61438 17.0485C9.65261 17.0485 9.67172 17.0485 9.69084 17.0485C9.69084 17.0485 9.69084 17.029 9.69084 17.0094Z" fill="white"/>
<path d="M6.91925 17.0485C6.72811 17.0485 6.53697 17.0485 6.34583 17.0485C6.53697 17.0876 6.72811 17.068 6.91925 17.0485Z" fill="white"/>
<path d="M3.9953 6.86245C3.9953 6.86245 3.97592 6.8429 3.95654 6.8429C3.95654 6.8429 3.95654 6.86245 3.9953 6.86245Z" fill="white"/>
<path d="M3.32587 5.68933C3.32587 5.68933 3.24941 5.70888 3.21118 5.72843C3.2303 5.72843 3.26852 5.72843 3.32587 5.68933Z" fill="white"/>
<path d="M13.0932 4.8291C13.0932 4.8291 13.055 4.8682 13.0359 4.88775C13.0741 4.88775 13.0932 4.84865 13.0932 4.8291Z" fill="white"/>
<path d="M19.8023 9.77552C19.8023 9.77552 19.6111 9.77552 19.5156 9.79508C19.1524 9.91238 18.7892 10.0688 18.4261 10.1665C18.2349 10.2252 18.1202 10.323 18.082 10.4989C18.0247 10.6944 17.8909 10.7922 17.6997 10.8704C17.6806 10.4012 17.6615 9.95148 17.6233 9.52136C17.6233 9.3845 17.6806 9.3454 17.8144 9.36495C17.9482 9.36495 18.1011 9.44316 18.1967 9.3454C18.5407 8.95438 18.8466 8.54381 19.1715 8.17234C19.1142 8.09413 19.0759 8.09413 19.0377 8.09413C18.579 8.25054 18.1202 8.4265 17.6806 8.60246C17.6041 8.62201 17.5468 8.68067 17.5659 8.75887C17.5659 8.99348 17.3939 9.09124 17.241 9.18899C17.0116 9.32585 16.8013 9.48226 16.572 9.61912C15.9221 10.0297 15.2913 10.4598 14.6223 10.8899C14.6223 10.8117 14.6032 10.7335 14.5841 10.6944C14.5268 10.4403 14.5841 10.323 14.8708 10.3034C15.2149 10.3034 15.4634 10.0883 15.6163 9.75597C15.8265 9.22809 15.9412 8.70022 15.3296 8.23099C15.5589 8.28964 15.7118 8.32875 15.8456 8.36785C16.7058 8.60246 17.1072 8.4265 17.6041 7.68356C17.6424 7.60536 17.7188 7.48805 17.8335 7.60536C18.0438 7.82042 18.3878 7.62491 18.5981 7.85952C18.5981 7.85952 18.6745 7.85952 18.7128 7.85952C18.8848 7.80087 18.9995 7.87907 19.1333 7.97683C19.2097 8.03548 19.2862 8.11369 19.3818 8.15279C19.4773 8.19189 19.5729 8.27009 19.6685 8.15279C19.7641 8.05503 19.6685 7.95728 19.6303 7.87907C19.5156 7.68356 19.3818 7.52715 19.2289 7.37074C17.7571 5.90442 16.0941 4.69225 14.3738 3.51919C14.2018 3.40188 13.9916 3.32368 13.8004 3.24547C13.4181 3.04996 12.9976 3.03041 12.5962 2.89355H11.5641C10.9142 3.04996 10.7039 3.34323 10.7613 3.96886C10.7613 4.10572 10.8186 4.24258 10.8568 4.37943C10.8951 4.49674 10.9333 4.61405 10.9333 4.7509C10.9333 4.92686 10.8568 5.00507 10.6848 4.92686C10.5701 4.86821 10.4554 4.79001 10.3216 4.80956C10.054 4.80956 9.92023 4.7118 9.86289 4.43809C9.76731 4.02752 9.57617 3.89066 9.17477 3.89066C8.98363 3.89066 8.9454 3.7929 8.92629 3.63649C8.86895 3.18682 8.69692 3.01086 8.25729 2.95221C8.18083 2.95221 8.12349 2.97176 8.04704 2.91311H7.20601C7.20601 2.91311 7.07221 2.93266 6.99575 2.95221C6.34587 3.01086 5.73421 3.18682 5.19902 3.55829C4.72116 3.89066 4.22419 4.22303 3.72722 4.53584C3.36405 4.77046 3.03911 5.02462 2.71417 5.31788C2.02606 5.92397 1.39529 6.5887 0.668947 7.13613C0.363119 7.35119 0.0955203 7.62491 -0.019165 8.01593V8.21144C0.133749 8.32875 0.286662 8.28964 0.420462 8.21144C0.573376 8.09413 0.764518 8.07458 0.95566 8.01593C1.24237 7.93773 1.5482 7.91817 1.83491 7.83997C2.15986 7.76177 2.50391 7.66401 2.86708 7.60536C2.82885 7.66401 2.77151 7.66401 2.73328 7.66401C2.59948 7.66401 2.4848 7.66401 2.42745 7.82042C2.37011 7.95728 2.46568 8.05503 2.54214 8.15279C2.8862 8.50471 3.28759 8.70022 3.80368 8.56336C3.99482 8.50471 4.18596 8.48515 4.43445 8.4265C4.24331 8.62201 4.09039 8.75887 4.07128 9.01303C3.97571 9.73642 4.26242 10.1861 4.93142 10.4403C5.0461 10.4794 5.19902 10.5185 5.12256 10.6749C5.0461 10.8117 4.95053 10.6749 4.87407 10.6358C4.41533 10.3621 3.93748 10.0883 3.51697 9.77552C3.07734 9.44316 2.54214 9.22809 2.23631 8.71977C2.19808 8.66111 2.12163 8.62201 2.06428 8.60246C1.72023 8.48516 1.39529 8.32875 1.03212 8.23099C0.917432 8.19189 0.802746 8.17234 0.726289 8.28964C0.668947 8.3874 0.726289 8.48516 0.783632 8.56336C0.993888 8.85663 1.24237 9.14989 1.47174 9.44316C1.56731 9.56046 1.682 9.63867 1.83491 9.61912C2.02606 9.58001 2.06428 9.69732 2.06428 9.85373C2.06428 10.1665 2.02606 10.4794 1.98783 10.8117C1.87314 10.7726 1.85403 10.6749 1.83491 10.5967C1.77757 10.4794 1.70111 10.3816 1.58643 10.3425C1.1468 10.1861 0.72629 9.99059 0.286662 9.83418C0.191091 9.79508 0.0764061 9.73642 -0.019165 9.83418V9.95148C0.22932 10.4207 0.59249 10.7922 0.936546 11.1832C1.03212 11.3005 1.18503 11.3787 1.33794 11.3787C1.5482 11.3787 1.56731 11.4569 1.5482 11.6329C1.47174 12.3954 1.47174 13.1774 1.47174 13.9594C1.47174 15.2107 1.64377 16.4229 1.98783 17.6155C2.31277 18.769 2.77151 19.8443 3.65076 20.6459C4.83585 21.7408 6.17384 22.1122 7.70298 21.5453C7.98969 21.428 8.25729 21.2715 8.56312 21.0956C8.41021 21.643 8.19995 22.1122 7.93235 22.5619C7.74121 22.8943 7.76032 22.9725 8.14261 23.0507C8.29552 23.0898 8.42932 23.1093 8.41021 23.344C8.39109 23.7936 8.41021 23.8327 8.84983 23.9696C8.9454 24.0087 9.02186 24.0478 9.02186 24.1455C9.02186 24.4584 9.23212 24.517 9.4806 24.5757H10.0349C10.1305 24.5561 10.2261 24.5366 10.3216 24.517C10.5701 24.4584 10.723 24.302 10.6848 24.0478C10.6275 23.7936 10.7613 23.8327 10.9142 23.8523C11.2391 23.8914 11.3347 23.7741 11.2965 23.4613C11.271 23.1875 11.3857 23.0507 11.6405 23.0507C11.6405 23.0507 11.6787 23.0507 11.6979 23.0507C11.9272 23.0507 12.0037 23.0116 11.8508 22.777C11.6979 22.5228 11.5449 22.2491 11.4303 21.9558C11.2773 21.643 11.1435 21.3106 11.0862 20.9392C11.2965 21.0369 11.4494 21.1347 11.6214 21.2129C12.8256 21.7799 14.0298 21.9558 15.234 21.2715C16.0368 20.8023 16.6102 20.1376 17.0307 19.3164C17.8144 17.8306 18.082 16.2274 18.1776 14.5851C18.2349 13.588 18.1776 12.6104 18.1202 11.6133C18.1202 11.3592 18.1585 11.2419 18.4261 11.3005C18.6172 11.3396 18.7319 11.2614 18.8466 11.1245C19.1142 10.8117 19.3818 10.4989 19.6494 10.1861C19.7067 10.1079 19.8405 10.0492 19.7641 9.93193L19.8023 9.77552ZM17.6615 9.05214C17.6997 8.89573 17.6615 8.73932 17.8909 8.68067C18.1967 8.60246 18.4834 8.4656 18.8657 8.32875C18.5981 8.66111 18.4069 8.91528 18.1967 9.16944C18.0629 9.32585 17.8909 9.20854 17.7379 9.22809C17.6424 9.22809 17.6424 9.14989 17.6615 9.07169V9.05214ZM16.075 10.2447C16.075 10.1274 16.1323 10.0688 16.2088 10.0297C16.572 9.79508 16.9351 9.56046 17.2983 9.32585C17.4703 9.20854 17.5086 9.28675 17.5086 9.44316C17.5086 9.91238 17.5468 10.3621 17.5659 10.8313C17.5659 10.929 17.5659 11.0268 17.4703 11.105C16.9925 11.4178 16.5337 11.7306 15.9986 12.0825C16.0368 11.4178 16.0941 10.8313 16.075 10.2447ZM14.6223 11.1832C14.6223 10.9877 14.7944 10.9877 14.9473 10.8899C14.909 11.5742 14.9473 12.239 14.7179 12.845C14.6797 12.845 14.6606 12.845 14.6223 12.845C14.6223 12.2976 14.6223 11.7502 14.6223 11.2028V11.1832ZM14.9855 12.845C15.1384 12.7864 15.1575 12.845 15.1575 12.9623C15.1575 13.1188 15.1575 13.2947 15.1575 13.4511C15.0046 15.719 14.2783 17.7719 12.8638 19.5511C12.8065 19.6293 12.73 19.7661 12.6344 19.6097C12.5389 19.4533 12.233 19.3751 12.4624 19.1209C12.9212 18.5735 13.3034 17.9674 13.6093 17.3027C14.1445 16.071 14.4694 14.8001 14.5459 13.4511C14.5459 13.1188 14.6988 12.9623 14.9855 12.845ZM11.1627 19.6879C11.1627 19.6879 11.0862 19.5706 11.1053 19.5119C11.1627 19.3751 11.1053 19.2382 11.1053 19.1209C11.1053 18.9059 10.9524 18.8277 10.7804 18.9059C10.6466 18.9645 10.5319 18.945 10.4172 18.8668C10.5319 18.8472 10.6275 18.8277 10.7039 18.7886C10.8951 18.7299 11.0671 18.7104 11.1627 18.9645C11.2009 19.0427 11.2965 19.1014 11.3729 19.1796C11.4494 19.2382 11.5067 19.3164 11.6023 19.2382C11.6979 19.1796 11.6979 19.0623 11.6596 18.9841C11.5832 18.8472 11.6596 18.8081 11.7361 18.7299C11.9463 18.5148 12.3668 18.4562 12.7109 18.6321C12.3286 19.16 11.8699 19.6293 11.3538 20.0985C11.3538 19.903 11.3156 19.7857 11.1818 19.7075L11.1627 19.6879ZM7.74121 10.4598C7.26335 10.4598 6.86195 10.323 6.42233 10.1079C6.88107 9.97103 7.28247 9.85373 7.70298 9.91238C7.70298 10.0883 7.58829 10.2643 7.74121 10.4598ZM6.61347 10.3621C7.49272 10.7531 8.37198 10.6749 9.25123 10.2839C9.44237 10.2056 9.57617 10.147 9.76731 10.323C9.95846 10.4989 10.1496 10.4207 10.2069 10.1861C10.2452 9.99059 10.3407 10.0688 10.4363 10.1079C10.7804 10.2839 11.1435 10.4207 11.5067 10.4989C12.2139 10.6553 12.902 10.538 13.5328 10.2056C13.8578 10.0297 14.0871 10.2447 14.3738 10.2839C14.4694 10.2839 14.4503 10.4207 14.4503 10.4989C14.5076 11.4569 14.5076 12.4149 14.4503 13.3729C14.4503 13.6662 14.3356 13.7444 14.0489 13.7444C12.902 13.7444 11.7743 13.7444 10.6275 13.7444V13.7053C9.00275 13.7053 7.35892 13.7053 5.73421 13.7053C5.54307 13.7053 5.48573 13.6466 5.46662 13.4511C5.37104 12.4736 5.39016 11.5156 5.4475 10.538C5.4475 10.3621 5.54307 10.3034 5.69599 10.2643C6.02093 10.1861 6.30764 10.2056 6.63258 10.3425L6.61347 10.3621ZM5.25636 7.83997C5.02699 7.4685 4.68293 7.35119 4.26242 7.40985C3.99482 7.4294 3.70811 7.58581 3.38317 7.3903C3.66988 7.29254 3.82279 6.99928 4.12862 7.11658C4.12862 7.11658 4.16685 7.11658 4.18596 7.09703C4.6447 6.82332 5.1799 6.74511 5.63864 6.49095C5.77244 6.41274 5.8489 6.41274 5.88713 6.60825C5.96358 6.90152 6.36498 6.99928 6.59435 6.80376C6.86195 6.56915 7.20601 6.60825 7.39715 6.90152C7.45449 6.97972 7.49272 7.03838 7.60741 7.05793C7.79855 7.11658 7.89412 7.33164 8.04704 7.40985C8.29552 7.5467 8.21906 7.70311 8.21906 7.87907C8.21906 8.13324 8.39109 8.36785 8.21906 8.62201C8.16172 8.70022 8.14261 8.81752 8.00881 8.77842C7.37804 8.62201 6.76638 8.81752 6.15473 8.95438C5.8489 9.01303 5.52396 9.11079 5.21813 9.13034C5.1799 9.05214 5.23724 9.01303 5.27547 8.95438C5.48573 8.58291 5.48573 8.21144 5.25636 7.83997ZM5.1799 6.43229C5.35193 6.35409 5.42839 6.21723 5.60042 6.33454C5.50484 6.4714 5.39016 6.53005 5.1799 6.43229ZM8.19995 7.27299C8.16172 6.99928 8.06615 6.72556 8.31463 6.45185C8.33375 6.76466 8.37198 7.03838 8.19995 7.27299ZM8.16172 6.27589C8.02792 5.94352 8.16172 5.72846 8.31463 5.43519C8.37198 5.76756 8.31463 6.00217 8.16172 6.27589ZM8.12349 5.39609C8.12349 5.14193 8.14261 4.94641 8.35286 4.80956C8.39109 4.79001 8.44843 4.7509 8.48666 4.80956C8.48666 4.82911 8.50578 4.88776 8.48666 4.92686C8.42932 5.10282 8.33375 5.27878 8.12349 5.41564V5.39609ZM10.0731 8.09413C9.95846 7.87907 9.95846 7.68356 9.99669 7.40985C10.1305 7.68356 10.1878 7.85952 10.0731 8.09413ZM10.0731 10.2447C9.95846 9.97103 9.99669 9.75597 10.1305 9.54091C10.1687 9.75597 10.1878 9.97103 10.0731 10.2447ZM9.63352 6.23678C9.84377 6.39319 9.99669 6.56915 10.0923 6.84287C9.76731 6.68646 9.69086 6.5887 9.63352 6.23678ZM9.882 7.44895C9.65263 7.27299 9.67174 7.03838 9.67174 6.74511C9.90111 6.97972 9.92023 7.09703 9.882 7.44895ZM9.76731 8.36785C9.57617 8.4265 9.38503 8.4265 9.28946 8.15279C9.4806 8.23099 9.63352 8.28964 9.76731 8.36785ZM9.80554 10.2056C9.55706 10.0688 9.53794 10.0297 9.51883 9.75597C9.67174 9.85373 9.7482 10.0297 9.80554 10.2056ZM9.17477 5.74801C9.40415 5.86531 9.53794 5.98262 9.46149 6.25634C9.30857 6.11948 9.17477 6.00217 9.17477 5.74801ZM9.13655 5.31788C9.32769 5.45474 9.44237 5.5916 9.55706 5.78711C9.28946 5.70891 9.25123 5.65025 9.13655 5.31788ZM8.60135 4.77046C8.86895 4.79001 9.06009 4.88776 9.19389 5.12237C8.92629 5.12237 8.73515 5.02462 8.60135 4.77046ZM8.46755 6.11948C8.6778 6.35409 8.69692 6.5887 8.6778 6.94062C8.44843 6.66691 8.39109 6.43229 8.46755 6.11948ZM8.544 5.18103C8.65869 5.45474 8.71603 5.68935 8.62046 5.98262C8.44843 5.70891 8.39109 5.47429 8.544 5.18103ZM8.6778 5.20058C8.96452 5.33744 9.06009 5.49384 9.04097 5.84576C8.83072 5.6698 8.77338 5.45474 8.6778 5.20058ZM8.25729 4.65315C8.31463 4.51629 8.41021 4.41854 8.56312 4.45764C8.60135 4.45764 8.63958 4.53584 8.63958 4.53584C8.544 4.65315 8.39109 4.5945 8.27641 4.65315H8.25729ZM8.48666 7.37074C8.63958 7.64446 8.58223 7.83997 8.41021 8.07458C8.33375 7.82042 8.39109 7.62491 8.48666 7.37074ZM8.544 6.94062C8.79249 7.17523 8.88806 7.4294 8.86895 7.80087C8.63958 7.52715 8.56312 7.27299 8.544 6.94062ZM8.62046 8.36785C8.86895 8.56336 8.84983 8.81752 8.84983 9.13034C8.65869 8.85663 8.60135 8.64156 8.62046 8.36785ZM8.71603 7.97683C8.96452 8.11368 9.02186 8.32875 9.06009 8.58291C8.8116 8.4656 8.69692 8.28964 8.71603 7.97683ZM9.44237 9.44316C9.213 9.28675 9.11743 9.09124 8.98363 8.79797C9.27034 8.95438 9.38503 9.14989 9.44237 9.44316ZM9.0792 9.28675C9.213 9.48226 9.27034 9.67777 9.30857 9.93193C9.11743 9.71687 9.02186 9.54091 9.0792 9.28675ZM10.9715 10.1274C11.2582 10.0688 11.5258 9.83418 11.8508 10.0297C11.8699 10.0297 11.9463 10.0297 11.9655 10.0297C12.1948 9.71687 12.5006 9.87328 12.7682 9.89283C13.0358 9.89283 13.2843 9.95148 13.5328 10.0492C12.9212 10.5185 11.7552 10.5771 10.9715 10.147V10.1274ZM5.92536 13.8617C7.79855 13.8617 9.67174 13.8617 11.5449 13.8617C12.4051 13.8617 13.2843 13.8812 14.1445 13.8812C14.3547 13.8812 14.4121 13.9399 14.3738 14.1745C14.24 15.1521 13.9724 16.1101 13.6284 17.029C13.6284 17.029 13.4181 17.0876 13.3034 17.0876C11.0671 17.0876 8.83072 17.0876 6.59435 17.0876C6.49878 17.0876 6.36498 17.1267 6.28853 17.0094C5.94447 16.1296 5.7151 15.2107 5.56219 14.2723C5.52396 13.9986 5.63864 13.8617 5.90624 13.8617H5.92536ZM7.01487 17.2049C7.01487 17.2049 7.12955 17.2049 7.12955 17.2245C7.16778 17.5568 7.51184 17.635 7.62652 17.9088C7.74121 18.202 7.95146 18.3975 8.23818 18.4562C8.8116 18.593 9.3468 18.8081 9.95846 18.8472C9.69086 18.8081 9.51883 19.0818 9.25123 19.0427C9.25123 19.0427 9.19389 19.0427 9.19389 19.0623C9.06009 19.4337 8.62046 19.4337 8.46755 19.7661C8.4102 19.903 8.35286 19.8443 8.29552 19.7661C7.53095 19.0427 6.88107 18.2216 6.44144 17.1854C6.67081 17.1854 6.86195 17.1854 7.0531 17.1854L7.01487 17.2049ZM9.25123 18.593C9.00275 18.5344 8.77338 18.4562 8.52489 18.3975C8.14261 18.2998 7.81767 18.1825 7.70298 17.7328C7.66475 17.6155 7.55007 17.5764 7.47361 17.4982C7.39715 17.4395 7.30158 17.3613 7.35892 17.244C7.39715 17.1463 7.51184 17.2049 7.56918 17.2049C8.52489 17.2049 9.46149 17.2049 10.4172 17.2049C11.3729 17.2049 12.3286 17.2049 13.3034 17.2049C13.5137 17.2049 13.5902 17.244 13.4564 17.4591C13.2843 17.7328 13.1314 18.0261 12.9785 18.3193C12.902 18.4366 12.8256 18.4757 12.6727 18.4171C12.1948 18.202 11.6596 18.4366 11.4111 19.0232C11.22 18.5344 10.9333 18.5735 10.551 18.6908C10.1305 18.8277 9.69086 18.7299 9.27034 18.6126L9.25123 18.593ZM15.6545 8.83707C15.6545 8.97393 15.3487 9.16944 15.1575 9.14989C15.0046 9.14989 14.6988 8.81752 14.7179 8.62201C14.737 8.4265 14.8708 8.27009 15.0428 8.23099C15.1766 8.19189 15.6545 8.68067 15.6545 8.81752V8.83707ZM16.0559 8.27009C15.8839 8.23099 15.731 8.17234 15.5589 8.13324C15.3168 8.06807 15.0747 8.06807 14.8326 8.13324C15.0811 7.66401 15.3487 7.52715 15.903 7.66401C16.2088 7.74222 16.5146 7.83997 16.8013 7.48805C16.7631 7.99638 17.1072 7.76177 17.2983 7.83997C17.0307 8.27009 16.6102 8.40695 16.0368 8.27009H16.0559ZM16.6484 7.09703C16.8013 7.09703 16.9734 7.03838 17.0498 7.33164C16.8778 7.23389 16.7631 7.17523 16.6484 7.09703ZM17.1263 7.66401C17.1263 7.66401 16.9734 7.68356 16.9734 7.56626C16.9734 7.4685 17.0498 7.4685 17.1072 7.44895C17.2983 7.3903 17.3748 7.56626 17.5659 7.66401C17.3557 7.66401 17.241 7.66401 17.1263 7.66401ZM11.0671 5.5134C11.0671 5.5134 11.0671 5.43519 11.0671 5.37654C11.0289 5.33744 10.8759 5.29833 11.0289 5.22013C11.2965 5.06372 11.2773 4.82911 11.22 4.57494C11.1627 4.39899 11.1053 4.22303 11.048 4.04707C10.9142 3.53874 11.0862 3.20637 11.6023 3.06951C12.1757 2.93266 12.7109 3.06951 13.2652 3.18682C13.6666 3.26502 14.0298 3.42143 14.3547 3.63649C15.9794 4.6727 17.4895 5.88487 18.9039 7.19479C19.1524 7.40985 19.42 7.64446 19.592 8.01593C19.3053 7.89862 19.2289 7.62491 19.0568 7.48805C18.9995 7.44895 18.9613 7.37075 18.9039 7.35119C18.8083 7.31209 18.8657 7.40985 18.8657 7.44895C18.923 7.48805 18.9804 7.52715 18.9804 7.64446C18.8275 7.52715 18.6937 7.4294 18.5216 7.29254C18.5216 7.4685 18.6554 7.52715 18.6937 7.64446C18.5407 7.64446 18.5025 7.48805 18.3878 7.4685C18.3114 7.44895 18.1967 7.07748 18.1011 7.4685C18.1011 7.4685 18.0629 7.48805 18.0629 7.4685C17.8526 7.37074 17.6806 7.21434 17.3939 7.27299C17.2601 7.31209 17.1263 7.03838 17.0116 6.82332C17.1836 6.82332 17.413 6.99928 17.4895 6.76466C17.5468 6.5887 17.3557 6.45185 17.1645 6.39319C17.2027 6.43229 17.2219 6.4714 17.2601 6.5105C17.2983 6.56915 17.3557 6.62781 17.3174 6.70601C17.2792 6.78421 17.1836 6.74511 17.1263 6.70601C17.0307 6.66691 16.9734 6.62781 16.9351 6.78421C16.9351 6.84287 16.8396 6.84287 16.7822 6.84287C16.6675 6.84287 16.0559 6.68646 15.9412 6.62781C15.8839 6.70601 16.0177 6.76466 15.9794 6.82332C15.6545 6.80376 15.3678 6.70601 15.1002 6.5105C15.0237 6.45185 14.7752 6.5887 14.6606 6.41274C14.4694 6.31499 14.2018 6.41274 14.0489 6.17813C13.8578 6.13903 13.6475 6.09993 13.6857 6.43229C13.724 6.70601 13.5137 6.53005 13.4181 6.5496C13.2079 6.60825 13.1123 6.37364 12.9403 6.31499C12.8829 6.31499 12.9976 6.25634 13.0358 6.21723C13.3799 5.90442 13.399 5.74801 13.0932 5.39609C13.0741 5.5916 13.3034 5.80666 13.055 5.96307C12.9785 6.02172 12.8065 6.06082 12.7682 5.86531C12.6536 5.96307 12.7682 6.13903 12.6727 6.23678C12.5198 6.33454 12.558 6.17813 12.558 6.13903C12.5198 6.02172 12.5389 5.88487 12.4242 5.80666V6.21723C12.386 6.37364 12.2522 5.98262 12.2522 6.25634C12.2522 6.31499 12.2139 6.35409 12.1566 6.35409C12.061 6.35409 12.061 6.25634 12.0419 6.19768C11.9846 6.4714 11.7743 6.4714 11.5641 6.4714C11.5258 6.4714 11.5258 6.49095 11.5067 6.5105C11.3729 6.86242 11.3156 6.5496 11.2391 6.4714C11.22 6.56915 11.2391 6.70601 11.1053 6.72556C11.048 6.72556 11.048 6.68646 11.048 6.64736C11.0289 6.4714 11.0671 6.33454 11.2391 6.23678C11.4494 6.11948 11.7552 6.04127 11.7743 5.76756C11.7743 5.5134 11.9846 5.31788 11.9463 5.02462C11.9081 4.77046 11.9463 4.51629 11.9463 4.20348C11.8125 4.39899 11.7552 4.55539 11.8125 4.73135C11.9081 5.14193 11.6787 5.47429 11.5258 5.80666C11.4876 5.88487 11.2582 6.15858 10.9906 6.00217C11.1435 5.84576 11.2391 5.65025 11.1435 5.43519L11.0671 5.5134ZM11.9081 7.05793C11.7552 6.70601 11.6596 6.76466 11.5449 6.97972C11.5067 7.03838 11.4685 7.09703 11.3729 7.09703C11.2773 7.09703 11.2965 6.97972 11.2773 6.92107C11.2582 6.82332 11.3347 6.82332 11.392 6.78421C11.6596 6.64736 11.9463 6.66691 12.2522 6.5887C12.2522 6.84287 11.7743 6.6278 11.889 7.05793H11.9081ZM11.0671 7.17523C11.0671 7.17523 11.1435 7.09703 11.1818 7.17523C11.2965 7.3903 11.4303 7.31209 11.5449 7.17523C11.6596 7.03838 11.7361 7.25344 11.7934 7.17523C11.9655 6.99928 12.2522 7.03838 12.386 6.78421C12.5389 6.53005 12.902 6.5105 13.0932 6.70601C13.3034 6.92107 13.6857 6.84287 13.7622 6.53005C13.8004 6.39319 13.8386 6.33454 13.9916 6.41274C14.24 6.5496 14.5268 6.68646 14.7944 6.74511C15.1384 6.82332 15.4251 7.03838 15.7883 7.05793C15.9221 7.05793 16.0559 7.19479 16.1897 7.27299C16.3426 7.35119 16.4955 7.44895 16.6675 7.29254C16.5529 7.48805 16.3999 7.62491 16.1515 7.5467C15.9986 7.5076 15.8648 7.4685 15.7118 7.44895C15.0811 7.37074 14.5268 7.83997 14.5076 8.48516C14.5076 8.70022 14.5841 8.85662 14.737 9.07169C13.896 8.93483 13.1314 8.81752 12.3477 8.77842C12.1566 8.77842 11.9846 8.52426 11.8125 8.79797C11.6214 8.56336 11.4303 8.85662 11.2391 8.79797C11.0862 8.75887 10.9906 8.73932 11.0289 8.56336C11.0671 8.3092 11.0289 8.07458 10.8951 7.82042C10.7804 7.58581 11.0097 7.37075 11.0671 7.13613V7.17523ZM10.8186 7.3903C10.6848 7.44895 10.6275 7.58581 10.4745 7.58581C10.5892 7.5076 10.5701 7.27299 10.8186 7.3903ZM10.551 9.44316C10.551 9.3063 10.4172 9.14989 10.5701 9.05214C10.6466 9.01303 10.7804 9.09124 10.7995 9.14989C10.8568 9.3454 10.6275 9.3063 10.551 9.44316ZM10.5128 9.69732C11.2391 8.99348 12.1184 8.89573 13.055 8.99348C13.6284 9.05213 14.2209 9.14989 14.7944 9.2672C15.0811 9.32585 15.3869 9.32585 15.6545 9.11079C15.5016 10.0883 15.0811 10.3621 14.2209 10.0883C13.724 9.93193 13.227 9.75597 12.6918 9.71687C12.0801 9.67777 11.4876 9.79507 10.9142 9.97103C10.8186 9.99059 10.7421 10.0492 10.6466 10.0297C10.551 10.0297 10.4363 9.99059 10.3981 9.89283C10.3599 9.81463 10.4745 9.75597 10.5319 9.71687L10.5128 9.69732ZM10.379 9.56046C10.2643 9.44316 10.2261 9.32585 10.2643 9.18899C10.379 9.28675 10.4363 9.3845 10.379 9.56046ZM10.379 8.66111C10.2261 8.4265 10.2069 8.23099 10.2261 7.95728C10.3981 8.17234 10.4363 8.36785 10.379 8.66111ZM8.84983 4.34033C8.98363 4.24258 9.11743 4.28168 9.213 4.28168C9.57617 4.28168 9.7482 4.28168 9.70997 4.6727C9.70997 4.79001 9.76731 4.82911 9.84377 4.88776C9.99669 5.00507 10.1114 5.16148 10.1878 5.33744C10.2069 5.39609 10.2834 5.47429 10.1878 5.5525C10.0923 5.6307 9.97757 5.5916 9.86289 5.5916C9.7482 5.5916 9.76731 5.5134 9.76731 5.43519C9.72909 5.10282 9.6144 4.84866 9.23212 4.80956C9.0792 4.80956 8.9454 4.6727 8.8116 4.57494C8.69692 4.49674 8.73515 4.37943 8.83072 4.30123L8.84983 4.34033ZM2.56125 7.25344C2.40834 7.48805 2.14074 7.31209 1.96871 7.4294C1.85403 7.5076 1.73934 7.60536 1.60554 7.62491C1.5482 7.5076 1.70111 7.4294 1.62466 7.29254C1.43352 7.33164 1.37617 7.52715 1.22326 7.62491C1.1468 7.66401 1.07035 7.82042 1.03212 7.58581C1.013 7.4685 0.917432 7.56626 0.879203 7.58581C0.764518 7.64446 0.649833 7.72266 0.535147 7.80087C0.439576 7.85952 0.324891 7.93773 0.171977 8.03548C0.267548 7.74222 0.401348 7.56626 0.59249 7.4294C1.35706 6.88197 2.02606 6.19768 2.73328 5.57205C3.53608 4.84866 4.49179 4.35988 5.33282 3.6756C5.33282 3.83201 5.29459 3.91021 5.1799 3.96886C5.0461 4.02752 4.95053 4.12527 4.87407 4.26213C4.81673 4.34033 4.81673 4.43809 4.87407 4.47719C4.95053 4.51629 5.0461 4.47719 5.06522 4.37943C5.08433 4.16437 5.25636 4.10572 5.39016 4.00796C5.5813 3.89066 5.61953 3.59739 5.86801 3.55829C5.90624 3.55829 5.94447 3.53874 5.9827 3.51919C6.05916 3.59739 5.9827 3.63649 5.94447 3.6756C5.90624 3.73425 5.88713 3.7929 5.9827 3.81245C6.02093 3.81245 6.13561 3.87111 6.09738 3.73425C6.05916 3.59739 6.15473 3.51919 6.26941 3.51919C6.26941 3.40188 6.28853 3.30413 6.42233 3.38233C6.53701 3.44098 6.63258 3.34323 6.74727 3.42143C6.61347 3.55829 6.46055 3.59739 6.28853 3.51919C6.2503 3.73425 6.3841 3.7147 6.5179 3.6756C6.61347 3.65605 6.70904 3.6756 6.76638 3.6756C6.97664 3.63649 7.20601 3.7538 7.43538 3.63649C7.28247 3.51919 7.22512 3.32368 6.97664 3.44098C6.90018 3.48009 6.82372 3.30413 6.7855 3.20637C6.74727 3.12817 6.88107 3.14772 6.93841 3.12817C7.39715 3.04996 7.83678 3.03041 8.29552 3.12817C8.65869 3.22592 8.79249 3.49964 8.6778 3.85156C8.6778 3.89066 8.65869 3.94931 8.63958 3.96886C8.21906 4.02752 8.21906 4.49674 7.98969 4.7118C7.85589 4.6336 8.08526 4.47719 7.91324 4.37943C7.83678 4.37943 7.81767 4.51629 7.74121 4.55539C7.74121 4.7509 7.85589 4.92686 7.74121 5.12237V5.23968C7.77944 5.33744 7.68387 5.5525 7.93235 5.47429C8.00881 5.45474 8.04704 5.53295 8.02792 5.61115C7.89412 6.08038 7.87501 6.5496 7.97058 7.03838C7.45449 6.86242 7.35892 6.45185 7.39715 5.94352C7.24424 6.08038 7.30158 6.25634 7.16778 6.35409C6.97664 6.23678 7.14867 6.08038 7.11044 5.90442C7.03398 6.15858 6.86195 6.04127 6.76638 6.02172C6.5179 5.90442 6.76638 5.6698 6.68993 5.5134C6.44144 5.86531 6.44144 5.94352 6.76638 6.27589C6.80461 6.31499 6.9193 6.31499 6.88107 6.43229C6.84284 6.5105 6.7855 6.49095 6.72815 6.49095C6.6517 6.49095 6.59435 6.53005 6.55613 6.5887C6.49878 6.64736 6.47967 6.78421 6.36498 6.72556C6.26941 6.68646 6.32676 6.56915 6.32676 6.4714C6.23118 6.45185 6.2503 6.5496 6.21207 6.5887C6.17384 6.6278 6.15473 6.72556 6.07827 6.68646C6.02093 6.66691 6.00181 6.60825 5.9827 6.53005C5.92536 6.25634 5.60041 6.08038 5.35193 6.15858C5.29459 6.17813 5.23725 6.19768 5.1799 6.21723C5.10345 6.23678 4.98876 6.29544 4.93142 6.21723C4.87407 6.11948 5.00787 6.08038 5.0461 5.98262C4.85496 5.98262 4.68293 6.15858 4.5109 6.04127C4.43445 6.00217 4.54913 5.92397 4.53002 5.84576C4.14773 5.94352 3.78456 5.86531 3.59342 5.6698C3.57431 5.70891 3.55519 5.72846 3.51697 5.76756C3.45962 5.94352 3.47874 6.09993 3.70811 6.02172C3.88014 5.96307 3.95659 6.17813 4.03305 6.13903C4.28153 6.04127 4.47268 6.25634 4.70205 6.17813C4.74028 6.17813 4.81673 6.11948 4.79762 6.17813C4.70205 6.5105 4.98876 6.37364 5.12256 6.45185C4.98876 6.53005 4.93142 6.78421 4.68293 6.60825C4.58736 6.5496 4.47268 6.72556 4.35799 6.78421C4.24331 6.84287 4.14773 6.99928 3.99482 6.86242C3.84191 6.86242 3.78456 7.07748 3.63165 7.05793C3.45962 7.21434 3.28759 7.35119 3.05822 7.15568C3.05822 7.15568 2.96265 7.15568 2.92442 7.15568C2.80974 7.21434 2.7524 7.5076 2.56125 7.23389V7.25344ZM4.39622 8.11369C4.20508 8.15279 4.01394 8.21144 3.80368 8.25054C3.36405 8.36785 3.02 8.25054 2.71417 7.85952C2.82885 7.78132 2.98177 7.85952 3.07734 7.80087C3.23025 7.70311 3.07734 7.5467 3.13468 7.40985C3.44051 7.64446 3.76545 7.60536 4.10951 7.5467C4.70205 7.4294 5.0461 7.64446 5.19902 8.19189C4.9123 7.99638 4.6447 8.05503 4.3771 8.09413L4.39622 8.11369ZM4.39622 8.71977C4.54913 8.56336 4.70205 8.4265 4.85496 8.27009C4.9123 8.21144 4.95053 8.23099 5.00787 8.27009C5.14167 8.3483 5.1799 8.4656 5.19902 8.62201C5.16079 8.79797 5.08433 9.01303 4.9123 9.07169C4.72116 9.14989 4.5109 9.03258 4.35799 8.93483C4.26242 8.87618 4.35799 8.77842 4.39622 8.71977ZM4.96965 10.1079C4.53002 9.95148 4.30065 9.61912 4.31976 9.09124C4.89319 9.3845 5.46662 9.24765 6.02093 9.13034C6.61347 8.99348 7.20601 8.79797 7.83678 8.89573C8.19995 8.95438 8.544 9.09124 8.86895 9.2672C8.90718 9.28675 8.90718 9.32585 8.90718 9.36495C8.90718 9.58001 9.00275 9.75597 9.13655 9.95148C8.75426 9.89283 8.39109 9.83418 8.02792 9.77552C7.24424 9.65822 6.49878 9.93193 5.73421 10.1079C5.48573 10.1665 5.21813 10.2056 4.96965 10.1079ZM4.93142 10.8704C5.14167 10.9095 5.23725 11.0072 5.21813 11.2419C5.1799 11.7893 5.21813 12.3367 5.21813 12.9037C4.98876 12.7473 4.79762 11.4765 4.9123 10.8704H4.93142ZM5.3137 13.6271C5.35193 14.4873 5.54307 15.3085 5.79156 16.1296C6.1165 17.244 6.6517 18.2411 7.37804 19.1209C7.58829 19.3751 7.37804 19.4533 7.26335 19.5902C7.11044 19.7857 7.03398 19.5902 6.95752 19.5119C5.79156 18.2802 5.23724 16.7552 4.89319 15.113C4.74027 14.37 4.68293 13.6075 4.68293 12.8255C5.08433 12.9819 5.27547 13.197 5.29459 13.6271H5.3137ZM2.29366 10.5576C2.33188 10.1079 2.33188 9.65822 2.37011 9.16944C2.82885 9.48226 3.23025 9.75597 3.65076 10.0492C3.72722 10.1079 3.76545 10.1861 3.76545 10.2839C3.80368 10.8508 3.84191 11.4374 3.88014 12.063C3.45962 11.7893 3.07734 11.5156 2.67594 11.281C2.37011 11.105 2.25543 10.9095 2.29366 10.5576ZM1.682 9.20854C1.49086 8.95438 1.29972 8.71977 1.08946 8.4656C1.08946 8.4656 1.10857 8.4265 1.12769 8.40695C1.4144 8.50471 1.70111 8.62201 2.00694 8.71977C2.19808 8.77842 2.17897 8.95438 2.2172 9.09124C2.2172 9.16944 2.2172 9.2672 2.10251 9.2672C1.9496 9.2672 1.79669 9.3454 1.682 9.18899V9.20854ZM1.682 10.9877C1.49086 11.0659 1.2806 11.105 1.12769 10.9486C0.879203 10.6749 0.649833 10.3816 0.420462 10.0883L0.45869 10.0297C0.821861 10.1861 1.20414 10.323 1.56731 10.4794C1.70111 10.538 1.79669 10.9681 1.70111 11.0072L1.682 10.9877ZM3.02 19.3946C2.40834 18.2998 2.0834 17.1267 1.89226 15.895C1.64377 14.3309 1.682 12.7473 1.83491 11.1832C1.85403 10.9681 1.91137 10.9681 2.06428 11.0659C2.46568 11.3396 2.86708 11.6133 3.28759 11.8675C3.42139 11.9457 3.44051 12.063 3.44051 12.1999C3.44051 13.5293 3.47874 14.8588 3.86102 16.1492C4.31976 17.7133 4.95053 19.1991 6.13561 20.4113C5.00787 20.9392 3.55519 20.3526 3.03911 19.3946H3.02ZM3.97571 20.4895C4.35799 20.6264 4.66382 20.7437 5.00787 20.7632C6.02093 20.8023 6.80461 20.3722 7.45449 19.6293C7.62652 19.4533 7.68387 19.4728 7.83678 19.6293C8.14261 19.9421 8.48666 20.2353 8.8116 20.5482C7.45449 21.7994 5.3137 21.7994 3.97571 20.4895ZM9.51883 21.6039C9.4806 22.21 9.44237 22.8161 9.40415 23.4222C9.40415 23.5199 9.40415 23.6372 9.25123 23.6177C9.06009 23.6177 8.83072 23.735 8.6778 23.5395C8.60135 23.4222 8.75426 23.3635 8.84983 23.3049C8.9454 23.2462 9.13655 23.2657 9.11743 23.1093C9.11743 22.9529 8.9454 22.9138 8.83072 22.8747C8.60135 22.777 8.35286 22.7379 8.04704 22.7574C8.42932 22.0927 8.75426 21.4279 8.90718 20.7046C9.46149 20.9587 9.51883 21.0369 9.4806 21.6235L9.51883 21.6039ZM8.71603 23.0116C8.8116 22.9334 8.86895 23.0116 8.92629 23.0898C8.84983 23.168 8.77338 23.2071 8.69692 23.1484C8.65869 23.1093 8.6778 23.0507 8.69692 23.0116H8.71603ZM10.0349 21.0956C9.92023 21.1738 9.84377 21.0956 9.76731 21.0369C9.38503 20.7828 9.02186 20.5091 8.6778 20.2158C8.42932 20.0007 8.44843 19.7661 8.75426 19.6488C8.92629 19.5706 9.09832 19.5315 9.13655 19.3164C9.13655 19.2773 9.19389 19.2382 9.213 19.2382C9.55706 19.2382 9.84377 19.0036 10.1687 19.0232C10.4172 18.9841 10.6083 19.1991 10.8568 19.0623C10.9333 19.0232 10.9715 19.3555 10.9333 19.4728C10.8951 19.6488 10.9333 19.727 11.0671 19.8443C11.2582 20.0007 11.1244 20.2158 11.0097 20.3135C10.7039 20.5873 10.3599 20.8414 10.0349 21.0956ZM11.6787 22.601C11.7743 22.7574 11.6979 22.777 11.5641 22.7965C11.3538 22.7965 11.1244 22.7574 10.9142 22.8552C10.6466 22.9725 10.6275 23.1093 10.8759 23.2853C10.9715 23.3635 11.1053 23.4222 11.1627 23.5786C10.9142 23.5981 10.6848 23.4808 10.4363 23.6568C10.3981 22.8161 10.3599 22.0145 10.3216 21.1933C10.3216 21.0369 10.4363 20.9783 10.5128 20.9196C10.6275 20.8219 10.7613 20.7437 10.8951 20.6264C11.0862 21.3497 11.3156 21.9949 11.6787 22.601ZM11.1818 23.3244C11.0289 23.2071 10.9333 23.1484 10.8186 23.0702C11.1053 22.8747 11.1053 23.0898 11.1818 23.3244ZM11.0289 20.5482C11.392 20.2158 11.7552 19.903 12.0801 19.5511C12.2522 19.3555 12.3286 19.4924 12.4242 19.6097C13.0167 20.3722 13.7813 20.7437 14.737 20.7437C15.1384 20.7437 15.5207 20.6264 15.9412 20.4308C14.6414 21.7408 12.8829 21.7408 11.048 20.5482H11.0289ZM17.1454 18.7104C16.916 19.2382 16.5911 19.7075 16.1323 20.0789C15.406 20.6459 14.6032 20.6655 13.724 20.4308C15.2531 18.769 15.903 16.7552 16.2661 14.6046C16.3999 13.8226 16.4382 13.021 16.4191 12.239C16.4191 12.0434 16.4764 11.9457 16.6293 11.8479C17.0881 11.5742 17.5277 11.2614 18.0055 10.9486C18.2158 13.6271 18.2349 16.2274 17.1645 18.7299L17.1454 18.7104ZM18.7701 10.8899C18.6172 11.0854 18.4261 11.0072 18.254 11.0072C18.1585 11.0072 18.1393 10.929 18.1585 10.8508C18.1967 10.6553 18.2158 10.4403 18.4261 10.3621C18.751 10.2252 19.0951 10.1274 19.4391 10.0101C19.4391 10.0297 19.4582 10.0492 19.4773 10.0688C19.248 10.3425 19.0186 10.5967 18.7892 10.8704L18.7701 10.8899Z" fill="white"/>
<path d="M9.65263 16.853C9.59529 16.7357 9.4806 16.6184 9.49972 16.462C9.51883 16.286 9.44237 16.1687 9.27035 16.1101C9.0792 16.0514 9.02186 15.9146 9.04098 15.7386C9.04098 15.7386 9.04098 15.7191 9.04098 15.6995C9.04098 15.6409 9.04098 15.5822 9.04098 15.5235C9.04098 15.3671 9.04098 15.2303 8.92629 15.0739C8.84983 14.9566 8.92629 14.8197 9.04098 14.722C9.23212 14.5655 9.44237 14.4678 9.65263 14.4091C9.70997 14.4091 9.7482 14.3896 9.80554 14.37C10.0349 14.3309 10.1878 14.37 10.3025 14.4873C10.379 14.546 10.4363 14.6438 10.4554 14.7611C10.551 15.1521 10.6657 15.5627 10.6657 15.9732C10.6657 16.0905 10.6657 16.2274 10.7421 16.3251C10.7613 16.3642 10.8186 16.4033 10.8186 16.4424C10.8186 16.4424 10.8377 16.4424 10.8568 16.462C10.8568 16.462 10.8186 16.462 10.7995 16.462C10.7421 16.5207 10.6657 16.5011 10.5892 16.4816C10.5128 16.4816 10.4745 16.4033 10.4172 16.3642C10.1687 16.1492 10.054 16.1883 9.92023 16.5011C9.882 16.5793 9.86289 16.6575 9.82466 16.7357C9.7482 16.8726 9.7482 16.9508 9.82466 16.9899C9.82466 16.9899 9.80554 16.9703 9.78643 16.9508C9.82466 16.7944 9.99669 16.6966 10.0158 16.5402C10.0158 16.462 9.97757 16.3447 10.1114 16.3251C10.2261 16.3056 10.2834 16.3838 10.3407 16.4424C10.4745 16.6184 10.6657 16.638 10.8568 16.5598C10.9906 16.5207 11.0671 16.4229 10.9142 16.3251C10.723 16.2078 10.7039 16.0319 10.723 15.8364C10.723 15.4062 10.6083 14.9957 10.5128 14.5851C10.4363 14.3309 10.2643 14.2136 10.0158 14.2136C9.59529 14.1941 9.25123 14.3896 8.9454 14.6438C8.79249 14.7611 8.77338 15.0152 8.84983 15.0934C9.04098 15.2889 8.96452 15.4649 8.92629 15.6604C8.88806 15.9537 8.96452 16.1101 9.25123 16.1687C9.30858 16.1687 9.44237 16.1687 9.40415 16.2665C9.28946 16.5598 9.49972 16.7357 9.65263 16.9703C9.69086 16.9312 9.65263 16.8726 9.63352 16.7944L9.65263 16.853Z" fill="white"/>
<path d="M6.26943 17.029C6.26943 17.029 6.32677 17.029 6.34589 17.029C6.30766 17.029 6.26943 17.029 6.2312 17.0094C6.2312 17.0094 6.2312 17.0094 6.25032 17.0094L6.26943 17.029Z" fill="white"/>
<path d="M12.3668 17.0485C12.7682 17.0485 13.1696 17.068 13.571 17.0289C13.1696 17.0289 12.7682 17.0485 12.3668 17.0485Z" fill="white"/>
<path d="M11.8698 17.0485C11.2008 17.0485 10.551 17.0485 9.88196 17.0485C9.92019 17.0485 9.95841 17.068 10.0349 17.0485C10.6465 17.0485 11.2582 17.0485 11.8698 17.0485Z" fill="white"/>
<path d="M13.6284 5.49381C13.6284 5.49381 13.6857 5.49381 13.7048 5.49381C13.6857 5.49381 13.6475 5.47426 13.6284 5.45471C13.6284 5.45471 13.6284 5.45471 13.6093 5.47426C13.6093 5.47426 13.6093 5.49381 13.6284 5.51337V5.49381Z" fill="white"/>
<path d="M12.3286 5.57208C12.3286 5.57208 12.5006 5.61119 12.5197 5.51343C12.5771 5.29837 12.7682 5.18106 12.902 5.06376C12.9593 5.02465 12.9976 4.966 13.0358 4.90735C12.9976 4.90735 12.9402 4.90735 12.8447 4.90735C12.7873 4.90735 12.8447 4.966 12.8447 5.0051C12.8447 5.06376 12.8447 5.14196 12.7682 5.14196C12.5579 5.14196 12.5388 5.29837 12.5006 5.45478C12.4815 5.59164 12.3859 5.57208 12.3095 5.59164C12.2903 5.66984 12.3668 5.70894 12.3668 5.76759H12.405C12.405 5.70894 12.3668 5.65029 12.3095 5.61119L12.3286 5.57208Z" fill="white"/>
<path d="M12.9403 5.23965C12.9403 5.23965 12.9785 5.12234 13.0168 5.12234C13.2079 5.06369 13.1314 4.78997 13.3226 4.75087C13.5902 4.69222 13.9151 4.82908 13.9534 5.27875C13.8004 5.2592 13.7813 5.06369 13.6284 5.00504C13.6666 5.14189 13.724 5.2592 13.724 5.39606C13.724 5.43516 13.724 5.45471 13.724 5.45471C13.8196 5.43516 13.8004 5.39606 13.7431 5.20055C13.8196 5.27875 13.896 5.37651 13.9916 5.27875C14.068 5.20055 13.9916 5.10279 13.9534 5.02459C13.9534 5.02459 13.9534 5.00504 13.9342 4.98548C14.0107 5.08324 14.1254 5.2201 13.9916 5.3374C13.8004 5.49381 13.6858 5.68932 13.4946 5.86528C13.4946 5.70887 13.7049 5.65022 13.5902 5.51336C13.5902 5.51336 13.5902 5.49381 13.5902 5.47426H13.5711V5.49381C13.5902 5.68932 13.3035 5.80663 13.4373 6.04124C13.6858 5.90438 13.7431 5.59157 13.9725 5.49381C14.2401 5.37651 14.1445 5.23965 14.068 5.10279C14.0298 5.02459 13.9534 4.94638 13.896 4.88773C13.8769 4.84863 13.8004 4.82908 13.8196 4.77042C13.8578 4.69222 13.9151 4.71177 13.9725 4.73132C14.1827 4.82908 14.2592 4.59446 14.3165 4.49671C14.3739 4.39895 14.2018 4.3012 14.1063 4.2621C13.9916 4.22299 13.896 4.14479 13.7431 4.16434C13.8387 4.24255 13.9342 4.32075 14.0107 4.3794C14.0489 4.4185 14.1063 4.45761 14.068 4.49671C14.0489 4.53581 13.9916 4.57491 13.9534 4.57491C13.6284 4.53581 13.2844 4.71177 12.9594 4.57491C12.9594 4.65312 13.055 4.77042 13.055 4.84863C13.1506 4.71177 13.2844 4.61402 13.4946 4.67267C13.6475 4.71177 13.7813 4.67267 13.9151 4.63357C14.1636 4.59446 14.1636 4.45761 14.0107 4.3012C14.0872 4.3794 14.221 4.39895 14.2018 4.51626C14.2018 4.59446 14.1254 4.65312 14.0298 4.67267C13.8387 4.7248 13.7941 4.82908 13.896 4.98548C13.896 4.98548 13.8004 4.88773 13.7622 4.82908C13.5328 4.61402 13.2844 4.65312 13.1123 4.92683C13.0168 5.06369 12.9021 5.181 12.7683 5.2592C12.4624 5.45471 12.4433 5.66977 12.6918 5.96304C12.5771 5.66977 12.4624 5.39606 12.9021 5.27875L12.9403 5.23965Z" fill="white"/>
<path d="M7.5309 5.45474C7.5309 5.45474 7.33975 5.6698 7.30152 5.5525C7.18684 5.23968 6.84278 5.18103 6.70898 4.90731C6.5943 4.6727 6.42227 4.6336 6.21201 4.65315C6.11644 4.65315 6.03999 4.7118 5.96353 4.79001C6.02087 4.6727 5.96353 4.61405 5.82973 4.61405C5.77239 4.61405 5.73416 4.61405 5.67682 4.57494C5.88707 4.57494 6.11644 4.57494 6.3267 4.6336C6.51784 4.69225 6.68987 4.6336 6.84278 4.55539C6.84278 4.55539 6.88101 4.51629 6.88101 4.49674C6.4605 4.61405 6.0591 4.61405 5.6577 4.43809C5.60036 4.41854 5.58125 4.47719 5.56213 4.51629C5.54302 4.65315 5.61947 4.69225 5.73416 4.69225C5.7915 4.69225 5.86796 4.61405 5.9253 4.69225C5.98264 4.79001 5.84884 4.82911 5.81062 4.88776C5.75327 4.98552 5.69593 5.10282 5.63859 5.20058C5.60036 5.27878 5.60036 5.37654 5.67682 5.39609C5.94442 5.49384 6.03999 5.72846 6.21201 5.92397C6.25024 5.96307 6.30759 6.02172 6.36493 5.98262C6.42227 5.94352 6.36493 5.88487 6.36493 5.84576C6.40316 5.6698 6.15467 5.61115 6.23113 5.43519H6.21201C6.21201 5.43519 6.21201 5.43519 6.1929 5.45474C6.07822 5.61115 6.36493 5.6698 6.26936 5.82621C6.13556 5.74801 6.07822 5.61115 5.98264 5.5134C5.71505 5.27878 5.69593 5.23968 5.84884 5.00507C5.82973 5.04417 5.81062 5.08327 5.7915 5.14193C5.73416 5.27878 5.7915 5.35699 5.96353 5.29833C6.03999 5.27878 5.96353 5.45474 6.0591 5.49384C6.11644 5.5134 6.15467 5.49384 6.1929 5.45474C6.1929 5.45474 6.1929 5.45474 6.1929 5.43519C6.1929 5.43519 6.1929 5.43519 6.17379 5.41564C6.15467 5.45474 6.11644 5.49384 6.09733 5.49384C6.03999 5.49384 6.0591 5.45474 6.03999 5.41564C6.02087 5.29833 6.13556 5.22013 6.07822 5.10282C5.94442 5.10282 5.94442 5.31788 5.81062 5.29833C5.81062 5.10282 5.90619 4.98552 6.02087 4.86821C6.1929 4.65315 6.4605 4.73135 6.5943 4.94641C6.67076 5.08327 6.78544 5.23968 6.90013 5.27878C7.07215 5.33744 7.1295 5.43519 7.16773 5.57205C7.20595 5.80666 7.30153 5.70891 7.43532 5.6698C7.62647 5.61115 7.55001 5.33744 7.72204 5.27878C7.56912 5.23968 7.56912 5.39609 7.51178 5.47429L7.5309 5.45474Z" fill="white"/>
<path d="M6.90015 4.53581C6.90015 4.53581 6.90015 4.51626 6.91926 4.4967C6.91926 4.4967 6.91926 4.51626 6.91926 4.53581H6.90015Z" fill="white"/>
<path d="M7.66479 4.61405C7.68391 4.61405 7.72214 4.5945 7.74125 4.57495H7.66479C7.66479 4.57495 7.66479 4.61405 7.66479 4.6336V4.61405Z" fill="white"/>
<path d="M7.58827 4.98556C7.41624 5.04422 7.51181 5.23973 7.41624 5.37658C7.33978 5.18107 7.20598 5.04422 7.05307 4.94646C6.88104 4.84871 6.86193 4.6923 6.91927 4.53589C6.91927 4.53589 6.91927 4.53589 6.90016 4.53589C6.80458 4.63364 6.65167 4.7314 6.84281 4.84871C7.03395 4.98556 7.18687 5.12242 7.32067 5.29838C7.37801 5.37658 7.32067 5.53299 7.4927 5.49389C7.58827 5.45479 7.60738 5.33748 7.58827 5.23973C7.56915 5.14197 7.56915 5.06377 7.6265 5.02466C7.66472 5.02466 7.74118 5.08332 7.79852 5.12242C7.7603 5.04422 7.72207 4.96601 7.6265 4.98556H7.58827Z" fill="white"/>
<path d="M1.94964 6.76467C2.33192 6.3541 2.67598 5.90442 3.23029 5.70891C3.05826 5.4743 2.9818 5.70891 2.88623 5.76757C2.56129 6.04128 2.25546 6.33455 1.94964 6.62781C1.83495 6.74512 1.73938 6.86243 1.73938 7.09704C2.10255 6.74512 2.40838 6.45185 2.73332 6.13904C2.82889 6.04128 2.92446 5.94353 3.07738 5.96308C3.28763 5.98263 3.42143 5.86532 3.53612 5.72846C2.86712 5.86532 2.40838 6.29544 1.96875 6.76467H1.94964Z" fill="white"/>
<path d="M3.61252 5.53296C3.61252 5.53296 3.55518 5.53296 3.53606 5.53296C3.47872 5.57206 3.40226 5.63071 3.32581 5.68937C3.40226 5.66982 3.49783 5.65027 3.5934 5.65027C3.5934 5.61116 3.63163 5.57206 3.63163 5.53296H3.61252Z" fill="white"/>
<path d="M2.65686 6.8429C2.65686 6.8429 2.48483 6.882 2.4466 6.7647C2.40837 6.68649 2.4466 6.62784 2.50394 6.56919C2.40837 6.74515 2.4466 6.8429 2.65686 6.8038C2.73331 6.8038 2.80977 6.7256 2.88623 6.8038C2.9818 6.92111 3.1156 6.882 3.2494 6.882C3.26851 6.882 3.28763 6.882 3.30674 6.882C3.28763 6.882 3.26851 6.8429 3.2494 6.8429C3.2494 6.8429 3.28763 6.8429 3.30674 6.8429C3.30674 6.8429 3.26851 6.8429 3.2494 6.8429C3.13471 6.8429 2.94357 6.94066 2.90534 6.78425C2.86711 6.62784 2.82889 6.70604 2.75243 6.7256C2.67597 6.74515 2.56129 6.8429 2.50394 6.7647C2.42749 6.66694 2.56129 6.58874 2.59951 6.51053C2.61863 6.47143 2.7142 6.43233 2.65686 6.35413C2.54217 6.41278 2.4466 6.53009 2.37014 6.62784C2.3128 6.68649 2.29369 6.78425 2.35103 6.86245C2.38926 6.94066 2.46571 6.96021 2.54217 6.94066C2.80977 6.82335 2.82888 7.01886 2.88623 7.17527C2.90534 6.97976 2.90534 6.78425 2.61863 6.86245L2.65686 6.8429Z" fill="white"/>
<path d="M11.5067 5.3374C11.564 5.06368 11.6978 4.78997 11.564 4.4967C11.5449 4.4967 11.5258 4.4967 11.5067 4.4967C11.5067 4.57491 11.5067 4.65311 11.5258 4.73132C11.5258 4.73132 11.5258 4.73132 11.5258 4.75087C11.5258 4.77042 11.5258 4.78997 11.5258 4.80952C11.5258 5.18099 11.3729 5.39605 11.0288 5.47426C11.2391 5.57201 11.4684 5.53291 11.5067 5.2983V5.3374Z" fill="white"/>
<path d="M11.4493 5.16151C11.4684 5.06375 11.4875 4.94644 11.4493 4.84869C11.4302 4.80959 11.4302 4.75093 11.392 4.77048C11.392 4.86824 11.392 4.966 11.392 5.06375C11.3729 5.27881 11.2391 5.39612 11.0288 5.39612C11.2391 5.47432 11.392 5.39612 11.4493 5.18106V5.16151Z" fill="white"/>
<path d="M18.7892 7.46852C18.6554 7.35121 18.9039 7.31211 18.8466 7.21436C18.8083 7.29256 18.6172 7.33166 18.7892 7.46852Z" fill="white"/>
<path d="M3.34492 6.90149C3.49783 6.90149 3.63163 6.90149 3.76543 6.82328C3.82278 6.78418 3.89923 6.78418 3.95657 6.82328C3.91835 6.76463 3.95657 6.62777 3.861 6.68643C3.68898 6.80373 3.49783 6.80373 3.32581 6.84283C3.32581 6.84283 3.34492 6.88194 3.36403 6.90149H3.34492Z" fill="white"/>
<path d="M13.3799 3.38238H13.4181C13.3608 3.30418 13.2652 3.26507 13.2079 3.20642C13.2079 3.30418 13.2652 3.38238 13.3799 3.38238Z" fill="white"/>
<path d="M13.896 3.51917C13.896 3.51917 13.9337 3.51917 13.9526 3.5379C13.9526 3.5379 13.9148 3.5379 13.896 3.51917Z" fill="white"/>
<path d="M14.3165 3.73421C14.3165 3.73421 14.3165 3.67556 14.3165 3.65601C14.3165 3.65601 14.2974 3.69511 14.2974 3.71466C14.2974 3.71466 14.3165 3.71466 14.3356 3.73421H14.3165Z" fill="white"/>
<path d="M3.34491 6.94059C3.34491 6.94059 3.34491 6.92104 3.34491 6.90149C3.24934 6.94059 3.17289 6.99924 3.07732 7.03835C3.00086 7.07745 3.07732 7.11655 3.07732 7.15565C3.15377 7.0579 3.30669 7.0579 3.36403 6.94059H3.34491Z" fill="white"/>
<path d="M3.34497 6.92104C3.3832 7.097 3.47877 7.07745 3.63168 7.0188C3.49788 7.07745 3.42143 7.0188 3.36408 6.90149L3.34497 6.92104Z" fill="white"/>
<path d="M12.3668 5.72852C12.3668 5.72852 12.3668 5.80672 12.3668 5.84582C12.405 5.82627 12.405 5.78717 12.405 5.74807C12.405 5.74807 12.3859 5.74807 12.3668 5.72852Z" fill="white"/>
<path d="M12.405 5.72841C12.405 5.72841 12.405 5.72841 12.405 5.74796C12.5006 5.80661 12.5197 5.90436 12.5388 6.02167C12.5388 6.11943 12.5388 6.21718 12.6153 6.29539C12.6153 6.15853 12.6153 6.04122 12.6153 5.90436C12.6153 5.74796 12.5388 5.6893 12.405 5.72841Z" fill="white"/>
<path d="M14.1635 6.25635C14.1635 6.25635 14.1635 6.25635 14.1444 6.25635C14.1444 6.25635 14.0488 6.25635 14.0106 6.25635C14.0488 6.2759 14.0871 6.29545 14.1253 6.29545C14.1253 6.29545 14.1444 6.29545 14.1635 6.2759V6.25635Z" fill="white"/>
<path d="M10.4172 13.0405C10.3598 13.4315 10.5892 13.6661 10.9906 13.6075C11.0479 13.6075 11.1053 13.6075 11.1435 13.6075C11.2773 13.627 11.3729 13.627 11.4684 13.6075C11.9272 13.4511 12.405 13.412 12.8447 13.1187C13.2461 12.8645 13.227 12.4735 13.399 12.1412C13.4563 12.0239 13.3799 11.8088 13.399 11.6328C13.399 11.3982 13.1505 11.2027 12.9594 11.3396C12.8064 11.4569 12.5962 11.5351 12.5006 11.7306C12.3859 11.9847 12.1757 11.9847 11.9654 11.9261C11.4111 11.7892 10.9715 12.0434 10.8759 12.6104C10.8568 12.7472 10.8759 12.845 10.6848 12.8059C10.551 12.8059 10.4554 12.8841 10.4554 13.0405H10.4172ZM13.0549 11.3982C13.2078 11.3982 13.2843 11.496 13.2652 11.711C13.1314 11.6328 12.9785 11.6133 12.9211 11.496C12.902 11.4569 12.9976 11.3982 13.0549 11.3982ZM12.2712 12.4735C12.2904 12.3171 12.1757 12.1998 12.1374 12.063C12.3286 12.0369 12.5134 12.1412 12.6918 12.3758C12.7491 12.1607 12.5197 12.0825 12.4815 11.9261C12.5006 11.8479 12.6153 11.887 12.6535 11.8088C12.5388 11.6719 12.6535 11.6328 12.7491 11.6133C12.9594 11.5937 13.0932 11.6915 13.2078 11.8674C13.3034 12.0239 13.3799 12.1803 13.2078 12.3367C13.2078 12.3367 13.1696 12.3562 13.1696 12.3758C13.1505 12.7277 12.9211 12.8841 12.6535 13.0796C12.4433 13.2165 12.2904 13.2947 12.0228 13.2751C12.0992 13.021 12.1757 12.7472 12.061 12.4931C11.9272 12.2194 11.736 12.0434 11.4302 12.0434C11.7552 11.8479 11.889 11.9065 12.2904 12.4735H12.2712ZM11.2009 13.0796C11.2009 13.0796 11.392 13.0405 11.4876 13.0796C11.564 13.1383 11.5831 13.2556 11.7169 13.2947C11.7169 13.1383 11.6214 13.0601 11.5067 12.9623C11.3729 12.8645 11.3729 12.7081 11.4302 12.5713C11.4876 12.454 11.5831 12.3953 11.7169 12.4149C11.8698 12.4344 11.9654 12.5126 12.0036 12.6886C12.0801 13.1383 11.6787 13.5879 11.2582 13.5097C11.1817 13.5097 11.1244 13.4511 11.1435 13.3533C11.1435 13.2556 11.0479 13.1383 11.1817 13.0601L11.2009 13.0796ZM11.0479 13.3729C11.0479 13.5097 10.9524 13.5488 10.8377 13.5488C10.723 13.5488 10.6083 13.4902 10.6083 13.3533C10.6083 13.2165 10.723 13.1774 10.8377 13.1578C10.9524 13.1578 11.0288 13.2556 11.0288 13.3729H11.0479ZM10.8759 13.0014C10.7612 13.0405 10.6848 13.1383 10.551 13.0992C10.5127 13.0992 10.5319 13.0014 10.551 12.9623C10.6465 12.8645 10.7421 12.8645 10.8568 12.9819L10.8759 13.0014Z" fill="white"/>
<path d="M9.51886 12.2194C9.51886 12.2194 9.72912 12.278 9.74823 12.4344C9.53798 12.3758 9.38506 12.1802 9.15569 12.1998C9.25126 12.5126 9.36595 12.7863 9.67178 12.9036C9.8438 12.9623 9.88203 13.06 9.8438 13.236C9.80558 13.3924 9.90115 13.4902 10.0158 13.4902C10.1879 13.5097 10.1114 13.3533 10.1305 13.2751C10.1687 13.0796 10.0158 12.8059 10.3408 12.7081C10.3025 12.7081 10.2834 12.7081 10.2452 12.7081C10.0732 12.7472 10.0158 12.845 10.0541 13.0209C10.0541 13.1382 10.0923 13.2556 10.0158 13.3924C9.93938 13.3338 9.93938 13.2556 9.95849 13.1969C9.9776 13.0209 9.93938 12.9036 9.74823 12.8645C9.53798 12.8254 9.44241 12.6299 9.34683 12.4149C9.61443 12.454 9.72912 12.669 9.88203 12.8254C10.0158 12.6886 9.8438 12.5713 9.90115 12.4344C9.99672 12.4735 9.95849 12.5908 10.0541 12.669C10.0541 12.669 10.0541 12.669 10.0732 12.6495C10.1879 12.4931 10.2261 12.278 10.4363 12.1998C10.6657 12.102 10.551 12.2585 10.551 12.3367C10.551 12.3562 10.5893 12.3758 10.6084 12.3953C10.6466 12.2976 10.7422 12.102 10.6848 12.0825C10.3981 11.9847 10.6275 11.7892 10.5893 11.6524C10.5893 11.5546 10.5893 11.4569 10.551 11.3787C10.4937 11.2222 10.4363 10.9485 10.3599 10.929C10.1114 10.8117 9.82469 10.8117 9.55709 10.8312C9.38506 10.8508 9.44241 11.0463 9.32772 11.144C9.00278 11.4764 9.09835 12.0043 9.49975 12.2389L9.51886 12.2194ZM10.4937 11.5937C10.4937 11.8674 10.379 12.0629 10.0541 12.1607C10.2834 11.7306 10.3981 11.3396 10.0541 10.9485C10.3408 11.0854 10.5128 11.2809 10.5128 11.5937H10.4937ZM9.57621 11.0658C9.46152 11.4373 9.48063 11.7697 9.69089 12.1607C9.15569 11.887 9.11746 11.3787 9.57621 11.0658Z" fill="white"/>
<path d="M6.84289 13.021C7.2634 13.412 7.81771 13.5097 8.3338 13.6075C8.63963 13.6662 8.90722 13.5097 9.19394 13.4902C9.36597 13.4902 9.36597 13.3533 9.25128 13.1969C9.11748 13.021 8.92634 12.8646 8.90722 12.6104C8.84988 12.0434 8.44848 11.7697 7.91328 11.9066C7.70303 11.9652 7.45454 11.9848 7.32074 11.7502C7.24429 11.6133 7.1296 11.5155 7.03403 11.3982C6.95757 11.3005 6.862 11.2418 6.7282 11.2809C6.57529 11.3396 6.49883 11.4373 6.47972 11.5937C6.47972 11.7501 6.40326 11.9066 6.44149 12.0434C6.49883 12.3953 6.57529 12.7473 6.84289 13.0014V13.021ZM8.00886 11.9848C8.21911 11.9066 8.39114 11.9457 8.58228 12.1607C8.16177 12.063 7.97063 12.1216 7.83683 12.3953C7.68391 12.6886 7.76037 13.021 8.02797 13.2751C8.02797 13.2751 8.0662 13.236 8.04708 13.236C8.00886 13.1187 7.91329 13.0601 8.12354 12.9428C8.6014 12.6495 8.83077 12.669 9.07925 13.1774C9.11748 13.236 9.17482 13.2947 9.27039 13.412C8.88811 13.3533 8.6014 13.5293 8.27646 13.4902C7.87506 13.4315 7.58834 13.1578 7.58834 12.7277C7.58834 12.4149 7.77949 12.1021 8.00886 12.0043V11.9848ZM7.85594 12.669C7.89417 12.5322 7.87506 12.3758 8.02797 12.3758C8.16177 12.3758 8.23823 12.5322 8.23823 12.669C8.23823 12.845 8.0662 12.8059 7.97063 12.8255C7.81771 12.8646 7.91329 12.7082 7.85594 12.6886V12.669ZM6.61352 11.5546C6.65175 11.3982 6.76643 11.32 6.93846 11.3982C6.90023 11.5155 6.76643 11.4764 6.74732 11.5937C6.90023 11.5742 7.07226 11.496 7.20606 11.6915C7.05315 11.7697 6.88112 11.8088 6.82377 12.0043L6.862 12.0239C6.97669 11.9261 7.09137 11.7697 7.24429 11.8675C7.41632 11.9848 7.11049 12.063 7.20606 12.2194C7.33986 12.0825 7.47366 11.9261 7.72214 12.0434C7.45454 12.454 7.41632 12.845 7.64569 13.2556C7.56923 13.3338 7.47366 13.3142 7.41632 13.2751C6.7282 12.9232 6.44149 12.3367 6.61352 11.5546Z" fill="white"/>
<path d="M10.5128 12.3367C10.4363 12.4344 10.3407 12.5518 10.2643 12.6495C10.2834 12.6495 10.3216 12.6691 10.3216 12.6886C10.4745 12.63 10.5319 12.4931 10.5892 12.3562C10.551 12.3562 10.5319 12.3562 10.5128 12.3171V12.3367Z" fill="white"/>
<path d="M14.2591 3.75379C14.2591 3.75379 14.2974 3.89065 14.3356 3.9493C14.2591 3.8711 14.1827 3.7929 14.1062 3.69514C14.1062 3.69514 14.0871 3.67559 14.068 3.65604C13.9342 3.59739 13.8004 3.55828 13.6666 3.49963C13.6093 3.49963 13.5328 3.53873 13.4564 3.55828C13.399 3.57783 13.3417 3.61694 13.2843 3.61694C13.0167 3.53873 12.7491 3.61694 12.4624 3.57783C12.73 3.44098 12.9403 3.49963 13.1696 3.57783C13.3417 3.63649 13.4564 3.61694 13.4181 3.40188C13.4181 3.40188 13.3799 3.40188 13.3608 3.38232C13.399 3.49963 13.399 3.61694 13.2461 3.53873C12.9212 3.38232 12.6153 3.34322 12.3286 3.61694C12.5006 3.85155 12.7874 3.55828 12.9594 3.73424C13.1123 3.51918 13.3226 3.81245 13.4755 3.65604C13.6666 3.48008 13.9151 3.53873 14.0107 3.71469C14.1636 4.02751 14.5841 4.06661 14.6605 4.43808C14.6605 4.51629 14.7561 4.51628 14.8135 4.49673C14.909 4.45763 14.8899 4.37943 14.8517 4.32077C14.7752 4.22302 14.6988 4.12526 14.6032 4.06661C14.4503 3.98841 14.3929 3.8711 14.3165 3.73424H14.2974L14.2591 3.75379ZM14.737 4.34033C14.737 4.34033 14.5841 4.18392 14.5076 4.10571C14.6032 4.16437 14.6797 4.24257 14.737 4.34033Z" fill="white"/>
<path d="M13.4181 3.4019C13.4181 3.4019 13.5901 3.4801 13.6666 3.49965C13.743 3.49965 13.8195 3.49965 13.8959 3.49965C13.743 3.441 13.5901 3.38234 13.4181 3.36279V3.4019Z" fill="white"/>
<path d="M14.0871 3.65608C14.0871 3.65608 14.2018 3.71474 14.2782 3.75384C14.1827 3.69519 14.068 3.63653 13.9724 3.57788C14.0106 3.59743 14.068 3.63653 14.1062 3.67564L14.0871 3.65608Z" fill="white"/>
<path d="M16.247 5.74806C16.247 5.74806 16.2661 5.76761 16.2852 5.78716C16.3808 5.82626 16.4382 5.98267 16.5528 5.96312C16.916 5.92402 17.088 6.19773 17.3174 6.39324C17.5659 6.60831 17.757 6.90157 18.0246 7.07753C18.1011 6.99933 18.0629 6.96023 18.0246 6.92112C17.8717 6.58876 17.585 6.37369 17.3174 6.17818C17.0689 6.00222 16.9542 5.5721 16.5146 5.72851C16.4382 5.76761 16.2661 5.59165 16.1323 5.4939C16.1323 5.6112 16.247 5.65031 16.2279 5.74806H16.247Z" fill="white"/>
<path d="M16.247 5.748C16.0941 5.57204 16.1514 5.8653 16.075 5.84575C15.8074 5.748 15.5207 6.06081 15.2531 5.748C15.2531 5.9044 15.4633 6.04126 15.1957 6.06081C15.0619 6.06081 14.9472 5.96306 14.7943 6.02171C15.1193 6.33453 15.5207 6.17812 15.7883 6.09991C16.0559 6.02171 16.1705 6.09991 16.3426 6.23677C16.4764 6.33453 16.5719 6.49093 16.7822 6.53004C16.6675 6.21722 16.2088 6.19767 16.2852 5.80665C16.247 5.80665 16.247 5.80665 16.247 5.76755V5.748Z" fill="white"/>
<path d="M16.2662 5.31788C16.1324 5.02461 15.8839 4.92686 15.5972 4.8291C15.6737 5.10282 15.6737 5.12237 15.2914 5.00506C15.2914 5.08327 15.3678 5.12237 15.387 5.18102C15.6737 5.31788 15.9986 5.10282 16.2662 5.31788Z" fill="white"/>
<path d="M12.386 4.61404C12.4433 4.41853 12.558 4.41853 12.7109 4.49673C12.7682 4.51628 12.8447 4.51628 12.902 4.45763C12.9594 4.37943 12.9594 4.30122 12.902 4.22302C12.902 4.20347 12.8638 4.16437 12.8447 4.18392C12.7682 4.41853 12.6344 4.24257 12.5389 4.22302C12.386 4.22302 12.1566 4.35988 12.2139 4.41853C12.386 4.59449 12.1566 4.57494 12.0992 4.67269C12.2139 4.67269 12.3286 4.7118 12.3668 4.61404H12.386Z" fill="white"/>
<path d="M14.6987 5.55252C14.8899 5.51342 15.0619 5.43521 15.2531 5.43521C15.5015 5.43521 15.5015 5.33746 15.406 5.1615C15.1957 5.31791 14.9281 5.2397 14.6987 5.33746C14.6414 5.35701 14.5841 5.22015 14.5267 5.33746C14.5076 5.37656 14.4885 5.47432 14.5267 5.51342C14.5649 5.57207 14.6605 5.57207 14.7179 5.55252H14.6987Z" fill="white"/>
<path d="M11.392 4.75096C11.392 4.75096 11.392 4.6532 11.392 4.6141C11.3729 4.55545 11.3538 4.49679 11.3347 4.43814C11.2965 4.18398 11.2391 3.91026 11.3347 3.6561C11.3347 3.67565 11.3347 3.71475 11.3347 3.7343C11.3347 3.75385 11.3347 3.7734 11.3347 3.79296C11.3347 3.7734 11.3347 3.75385 11.3538 3.7343C11.3729 3.53879 11.5258 3.46059 11.717 3.32373C11.4303 3.32373 11.2965 3.46059 11.2391 3.6561C11.1627 4.02757 11.1244 4.39904 11.3538 4.73141L11.392 4.75096Z" fill="white"/>
<path d="M14.1827 6.23683C14.4121 6.11952 14.6223 6.33459 14.909 6.29548C14.7752 6.37369 14.6797 6.35414 14.6223 6.41279C14.7179 6.41279 14.8326 6.41279 14.9281 6.41279C14.9855 6.41279 15.0619 6.35414 15.0428 6.25638C15.0237 6.17818 14.9664 6.15863 14.8899 6.19773C14.7561 6.27593 14.6223 6.19773 14.5076 6.13908C14.3547 6.06087 14.2591 6.09997 14.1636 6.21728C14.1636 6.21728 14.2018 6.21728 14.2209 6.21728L14.1827 6.23683Z" fill="white"/>
<path d="M14.1827 6.23681C14.1827 6.23681 14.1827 6.23681 14.1636 6.23681C14.2974 6.31501 14.4885 6.25636 14.6032 6.39322C14.5267 6.17816 14.3356 6.21726 14.1827 6.21726V6.23681Z" fill="white"/>
<path d="M11.6406 3.81241C11.8126 3.81241 11.9273 3.656 12.1184 3.656C12.214 3.656 12.1949 3.53869 12.1566 3.46049C12.1184 3.38228 12.0228 3.34318 12.0228 3.38228C12.0037 3.6169 11.7552 3.53869 11.6597 3.6169C11.4494 3.7342 11.6023 3.75375 11.6597 3.81241H11.6406ZM12.0611 3.53869C11.9464 3.63645 11.7552 3.63645 11.6597 3.7733C11.717 3.55824 11.9081 3.55824 12.0611 3.53869Z" fill="white"/>
<path d="M11.5831 3.94934C11.5258 4.1253 11.5067 4.30126 11.5067 4.47722C11.5258 4.47722 11.5449 4.47722 11.564 4.49677C11.6405 4.32081 11.5067 4.10575 11.6978 3.96889C11.7169 3.96889 11.6978 3.85158 11.6405 3.83203C11.6023 3.92979 11.564 3.98844 11.4493 3.89068C11.4493 3.89068 11.4493 3.92979 11.4493 3.94934C11.5067 3.98844 11.5449 4.00799 11.5831 3.98844V3.94934Z" fill="white"/>
<path d="M11.4875 4.47717L11.5062 4.496V4.47717H11.4875Z" fill="white"/>
<path d="M12.3091 5.55179L12.2904 5.53296L12.3091 5.55179Z" fill="white"/>
<path d="M12.1375 4.96594C12.2331 5.1028 12.0037 5.25921 12.1757 5.41562C12.1949 5.43517 12.1757 5.49382 12.1184 5.49382C11.9655 5.47427 12.0419 5.55247 12.0611 5.61113C12.1949 5.88484 12.214 5.53292 12.2904 5.55247C12.2331 5.53292 12.1949 5.55247 12.1566 5.61113V5.63068C12.1949 5.65023 12.1184 5.63068 12.1375 5.61113C12.3095 5.47427 12.1375 5.27876 12.2713 5.1028C12.214 5.27876 12.214 5.43517 12.3287 5.55247C12.2522 5.37651 12.386 5.12235 12.1757 4.98549L12.1375 4.96594Z" fill="white"/>
<path d="M11.4303 4.6923C11.4303 4.6923 11.4303 4.67275 11.4303 4.6532C11.4303 4.67275 11.4303 4.71185 11.4303 4.7314H11.4494C11.4494 4.7314 11.4494 4.7314 11.4494 4.71185L11.4303 4.6923Z" fill="white"/>
<path d="M11.4303 3.91019C11.4303 3.91019 11.4303 3.89064 11.4494 3.87109C11.4303 3.83199 11.392 3.79289 11.3729 3.75378C11.3729 3.79289 11.3729 3.83199 11.3729 3.87109C11.3729 3.87109 11.392 3.89064 11.4112 3.91019H11.4303Z" fill="white"/>
<path d="M11.4876 4.47717C11.4876 4.47717 11.4302 4.51627 11.4111 4.55538C11.4111 4.55538 11.4111 4.55538 11.4111 4.57493C11.4111 4.61403 11.4111 4.65313 11.4111 4.71179C11.4111 4.71179 11.4111 4.75089 11.4302 4.77044C11.4302 4.78999 11.4302 4.82909 11.4302 4.84864C11.4302 4.86819 11.4685 4.88774 11.5067 4.84864C11.5067 4.82909 11.5067 4.80954 11.5067 4.78999C11.4685 4.69223 11.3538 4.61403 11.4876 4.49672C11.4876 4.49672 11.4876 4.49672 11.4876 4.47717Z" fill="white"/>
<path d="M11.4111 4.57499C11.4111 4.57499 11.4111 4.57499 11.4111 4.55544C11.4111 4.49679 11.4111 4.43813 11.4111 4.37948C11.3346 4.24262 11.3346 4.08621 11.392 3.96891C11.392 3.92981 11.392 3.91026 11.392 3.87115C11.392 3.87115 11.3729 3.83205 11.3537 3.8125C11.2773 4.08621 11.3537 4.34038 11.3729 4.61409C11.3729 4.61409 11.3729 4.6532 11.392 4.67275C11.392 4.63364 11.392 4.61409 11.392 4.57499H11.4111Z" fill="white"/>
<path d="M11.4302 4.24255C11.4302 4.24255 11.4302 4.32076 11.4302 4.37941C11.4302 4.41851 11.4685 4.43806 11.4876 4.47717C11.4494 4.39896 11.4302 4.32076 11.4111 4.2621L11.4302 4.24255Z" fill="white"/>
<path d="M11.4111 4.08612C11.4111 4.08612 11.4111 3.96881 11.4494 3.91016C11.4494 3.91016 11.4302 3.94926 11.4111 3.96881C11.4111 4.00791 11.4111 4.06656 11.4111 4.10567V4.08612Z" fill="white"/>
<path d="M13.0168 3.94934C13.0168 3.94934 13.1506 3.96889 13.1315 3.87114C13.1315 3.81249 13.0741 3.75383 12.9977 3.79293C12.9021 3.83204 12.7492 3.77338 12.7301 3.87114C12.6918 4.0862 12.5389 3.94934 12.4434 3.96889C12.6536 4.22306 12.8256 3.91024 13.0168 3.96889V3.94934Z" fill="white"/>
<path d="M15.8265 6.23682C15.9795 6.45188 16.1324 6.56918 16.3809 6.70604C16.2471 6.43233 16.1133 6.29547 15.8265 6.23682Z" fill="white"/>
<path d="M15.3296 6.41272C15.4252 6.60823 15.5781 6.66688 15.8074 6.78419C15.6736 6.54958 15.5781 6.41272 15.3296 6.41272Z" fill="white"/>
<path d="M13.6475 3.9689C13.6475 3.9689 13.6666 3.87114 13.6475 3.83204C13.5137 3.67563 13.4564 3.94935 13.3417 3.91024C13.4372 3.98845 13.5519 4.0862 13.6666 3.9689H13.6475Z" fill="white"/>
<path d="M13.5711 5.43521C13.5711 5.43521 13.4755 5.2397 13.399 5.12239C13.4946 5.2397 13.5328 5.35701 13.5902 5.43521C13.5902 5.43521 13.6093 5.43521 13.6284 5.43521C13.552 5.2788 13.4755 5.10284 13.3035 5.04419C13.399 5.2006 13.4755 5.35701 13.5711 5.51341C13.5711 5.47431 13.5711 5.45476 13.5711 5.45476V5.43521Z" fill="white"/>
<path d="M13.5902 5.43518C13.5902 5.43518 13.5902 5.45473 13.5902 5.47428C13.5902 5.47428 13.5902 5.47428 13.571 5.43518H13.5902Z" fill="white"/>
<path d="M7.72204 3.65609C7.89406 3.61698 8.08521 3.77339 8.08521 3.81249C8.12343 4.28172 8.41015 3.73429 8.50572 3.9298C8.60129 3.79294 8.54395 3.65609 8.46749 3.53878C8.39103 3.44102 8.31458 3.32372 8.14255 3.36282C8.21901 3.46058 8.33369 3.53878 8.33369 3.67564C8.10432 3.69519 7.98964 3.46058 7.77938 3.48013C7.74115 3.48013 7.83672 3.32372 7.70292 3.38237C7.64558 3.42147 7.62646 3.49968 7.62646 3.57788C7.62646 3.63653 7.66469 3.67564 7.72204 3.67564V3.65609Z" fill="white"/>
<path d="M4.39616 5.4156C4.68287 5.43515 4.95047 5.59156 5.23718 5.55246C5.29453 5.55246 5.35187 5.51336 5.37098 5.4547C5.2563 5.4547 5.29453 5.25919 5.17984 5.31785C4.96959 5.4156 4.81667 5.12233 4.5873 5.25919C4.51084 5.29829 4.49173 5.16144 4.41527 5.10278C4.39616 5.12233 4.35793 5.16144 4.33882 5.18099C4.30059 5.27874 4.28147 5.4156 4.37704 5.4156H4.39616Z" fill="white"/>
<path d="M4.35797 5.18102C4.35797 5.18102 4.3962 5.10282 4.43443 5.10282C4.47266 5.04416 4.56823 5.04416 4.56823 4.94641C4.43443 4.90731 4.16683 5.29833 4.14772 4.8291C3.91835 4.94641 3.66986 5.02461 3.55518 5.29833C3.80366 5.08327 4.10949 5.27878 4.37709 5.18102H4.35797Z" fill="white"/>
<path d="M6.91934 4.4968C6.91934 4.4968 6.91934 4.4968 6.91934 4.47725C6.91934 4.43814 6.91934 4.39904 6.91934 4.37949C7.05313 4.26218 7.39719 4.32084 7.45453 4.47725C7.49276 4.55545 7.53099 4.59455 7.58833 4.59455C7.60745 4.59455 7.62656 4.575 7.64568 4.55545C7.56922 4.55545 7.41631 4.575 7.53099 4.41859C7.58833 4.34039 7.58833 4.28173 7.51188 4.26218C7.32073 4.16443 7.07225 4.34039 6.88111 4.16443C6.86199 4.20353 6.84288 4.22308 6.82376 4.26218C6.78554 4.34039 6.84288 4.41859 6.88111 4.4968H6.91934Z" fill="white"/>
<path d="M7.60742 4.61405C7.60742 4.61405 7.51185 4.61405 7.47362 4.5554C7.32071 4.26213 7.11045 4.37944 6.91931 4.49674C7.11045 4.49674 7.33982 4.30123 7.45451 4.65315C7.45451 4.71181 7.60742 4.73136 7.66477 4.61405C7.64565 4.61405 7.62654 4.61405 7.60742 4.61405Z" fill="white"/>
<path d="M4.43441 6.43231L4.39618 6.37366C4.24327 6.41276 4.12858 6.53007 4.05212 6.66692C4.05212 6.66692 4.05212 6.66692 4.05212 6.70603C4.20504 6.64737 4.35795 6.58872 4.43441 6.41276V6.43231Z" fill="white"/>
<path d="M3.91839 6.25635C3.6699 6.315 3.65079 6.33455 3.47876 6.62782C3.76547 6.49096 3.78459 6.47141 3.91839 6.25635Z" fill="white"/>
<path d="M7.07217 3.98847C7.01483 3.6952 6.82369 3.83206 6.67078 3.85161C6.78546 3.92982 6.9766 3.83206 7.07217 3.98847Z" fill="white"/>
<path d="M6.23115 5.37658C6.23115 5.37658 6.26938 5.29837 6.30761 5.25927C6.28849 5.29837 6.26938 5.33748 6.25026 5.37658C6.25026 5.37658 6.26938 5.39613 6.25026 5.43523C6.32672 5.31792 6.40318 5.22017 6.42229 5.02466C6.30761 5.14196 6.25026 5.25927 6.21204 5.37658H6.25026H6.23115Z" fill="white"/>
<path d="M10.4363 18.4953C10.5701 18.4953 10.7421 18.3975 10.6848 18.2411C10.6083 18.026 10.3598 17.8892 10.3981 17.6155C10.3981 17.5568 10.3216 17.5177 10.3025 17.5177C10.1114 17.5959 9.88199 17.459 9.69085 17.5764C9.63351 17.6155 9.59528 17.635 9.59528 17.7132C9.55705 17.8305 9.28945 18.0651 9.17477 18.0847C9.11742 18.0847 9.04096 18.0847 9.02185 18.1433C9.02185 18.202 9.06008 18.2411 9.09831 18.2997C9.32768 18.5539 9.63351 18.4562 9.86288 18.4757C10.0922 18.4757 10.2643 18.4757 10.4554 18.4757L10.4363 18.4953ZM9.55705 18.1042C9.55705 18.1042 9.46148 18.1042 9.44236 18.026C9.44236 17.9674 9.48059 17.9283 9.53793 17.9283C9.59528 17.9283 9.63351 17.9283 9.65262 17.9674C9.65262 18.0651 9.61439 18.0847 9.55705 18.0847V18.1042ZM10.3407 17.9283C10.3407 17.9283 10.4745 17.9283 10.4554 18.026C10.4554 18.0847 10.3981 18.1042 10.3407 18.1042C10.2834 18.1042 10.226 18.1042 10.226 18.0065C10.226 17.9478 10.2834 17.9283 10.3407 17.9283ZM9.97756 18.1042C9.97756 18.1042 9.84376 18.1042 9.84376 18.026C9.84376 17.9674 9.88199 17.9283 9.93933 17.9283C9.99668 17.9283 10.054 17.9283 10.0731 18.0065C10.0731 18.0651 10.0349 18.1042 9.99668 18.1042H9.97756ZM10.054 17.7328C10.054 17.7328 10.0922 17.635 10.1496 17.635C10.2069 17.635 10.2643 17.635 10.2834 17.7132C10.2834 17.7719 10.2452 17.811 10.1878 17.811C10.1305 17.811 10.054 17.811 10.054 17.7328Z" fill="white"/>
<path d="M6.00179 9.79511C6.09736 9.79511 6.25028 9.75601 6.25028 9.58005C6.17382 9.48229 6.21205 9.26723 6.00179 9.30633C5.90622 9.30633 5.77242 9.30633 5.81065 9.48229C5.84888 9.5996 5.81065 9.79511 6.00179 9.81466V9.79511Z" fill="white"/>
<path d="M7.14873 9.58002C7.14873 9.46271 7.1105 9.38451 7.1105 9.3063C7.1105 9.09124 6.95758 9.13034 6.8429 9.13034C6.63264 9.13034 6.72821 9.2672 6.72821 9.36496C6.72821 9.44316 6.72821 9.50181 6.72821 9.58002C6.86201 9.54092 6.9767 9.24765 7.14873 9.58002Z" fill="white"/>
<path d="M8.18081 9.58001C8.37196 9.58001 8.44841 9.48226 8.46753 9.32585C8.46753 9.14989 8.35284 9.09124 8.21904 9.07169C8.00879 9.03258 8.0279 9.20854 8.00879 9.36495C7.97056 9.48226 8.00879 9.56046 8.18081 9.56046V9.58001ZM8.12347 9.32585C8.12347 9.32585 8.12347 9.18899 8.19993 9.20854C8.2955 9.20854 8.33373 9.2672 8.35284 9.36495C8.35284 9.44316 8.2955 9.50181 8.21904 9.50181C8.08524 9.50181 8.12347 9.40405 8.12347 9.32585Z" fill="white"/>
<path d="M6.70902 9.57999C6.70902 9.57999 6.51788 9.56044 6.42231 9.54088C6.42231 9.42358 6.55611 9.48223 6.57522 9.40403C6.53699 9.32582 6.42231 9.42358 6.38408 9.34537C6.40319 9.22807 6.57522 9.34537 6.57522 9.18896C6.21205 9.18896 6.19294 9.18896 6.28851 9.52133C6.38408 9.87325 6.55611 9.59954 6.70902 9.57999Z" fill="white"/>
<path d="M7.95145 9.59962C7.91322 9.38455 7.89411 9.13039 7.74119 9.11084C7.56916 9.11084 7.58828 9.34545 7.55005 9.52141C7.70296 9.30635 7.81765 9.44321 7.95145 9.59962Z" fill="white"/>
<path d="M7.37798 9.56041C7.45444 9.404 7.30152 9.18894 7.51178 9.09119C7.3971 9.09119 7.28241 9.09119 7.16772 9.11074C7.41621 9.18894 7.2633 9.42355 7.37798 9.56041Z" fill="white"/>
<path d="M5.44754 9.95149C5.44754 9.95149 5.61957 9.95149 5.71514 9.83418C5.37108 9.99059 5.46665 9.59957 5.27551 9.52136C5.31374 9.69732 5.33286 9.85373 5.44754 9.95149Z" fill="white"/>
<path d="M13.227 9.63868C13.3799 9.63868 13.4564 9.52137 13.4564 9.38452C13.4564 9.20856 13.3417 9.16945 13.1697 9.1499C12.9976 9.189 13.0359 9.36496 13.0168 9.48227C12.9976 9.63868 13.1123 9.63868 13.2079 9.63868H13.227ZM13.1506 9.38452C13.1506 9.38452 13.1506 9.26721 13.1888 9.24766C13.3035 9.24766 13.3417 9.30631 13.3226 9.40407C13.3226 9.48227 13.2844 9.52137 13.2079 9.52137C13.1123 9.52137 13.1314 9.44317 13.1314 9.38452H13.1506Z" fill="white"/>
<path d="M12.9403 9.5605C12.9212 9.42365 13.055 9.24769 12.902 9.14993C12.8447 9.11083 12.6918 9.09128 12.6536 9.14993C12.558 9.26724 12.5962 9.4041 12.6153 9.59961C12.73 9.28679 12.8447 9.38455 12.9594 9.5605H12.9403Z" fill="white"/>
<path d="M12.2904 9.59962C12.4433 9.59962 12.5198 9.52141 12.5389 9.365C12.5007 9.22815 12.4624 9.11084 12.2904 9.11084C12.1375 9.11084 12.061 9.22815 12.061 9.365C12.061 9.52141 12.1566 9.58007 12.2904 9.59962ZM12.2904 9.2086C12.2904 9.2086 12.4242 9.2477 12.4242 9.34545C12.4242 9.44321 12.386 9.50186 12.2904 9.50186C12.1948 9.50186 12.1757 9.42366 12.1757 9.34545C12.1757 9.26725 12.2139 9.2086 12.2904 9.2086Z" fill="white"/>
<path d="M14.0297 9.56048C14.0297 9.56048 14.068 9.79509 14.2018 9.83419C14.2973 9.71689 14.3356 9.56048 14.3547 9.42362C14.2209 9.40407 14.2591 9.56048 14.1827 9.59958C14.0871 9.50182 14.1444 9.28676 13.9342 9.32586C13.9342 9.46272 13.8959 9.59958 13.8768 9.75599C13.9915 9.71688 13.9533 9.59958 14.0297 9.56048Z" fill="white"/>
<path d="M13.8004 9.71683C13.7621 9.59952 13.6092 9.67773 13.5901 9.56042C13.6474 9.48222 13.7621 9.59952 13.8195 9.50177C13.7812 9.42357 13.6474 9.50177 13.6666 9.36491C13.7621 9.36491 13.8386 9.36491 13.9342 9.34536C13.8195 9.26716 13.6857 9.18895 13.571 9.28671C13.4754 9.36491 13.4563 9.54087 13.4945 9.65818C13.5328 9.77548 13.6857 9.75593 13.8004 9.73638V9.71683Z" fill="white"/>
<path d="M11.8125 9.1499C11.717 9.34541 11.6023 9.34541 11.4111 9.1499C11.5258 9.38451 11.6596 9.46272 11.6978 9.63868C11.6787 9.46272 11.8316 9.34541 11.8125 9.1499Z" fill="white"/>
<path d="M10.551 20.0594C10.3981 20.0398 10.4364 19.9421 10.3981 19.8443C10.3599 19.7661 10.3408 19.551 10.1496 19.6683C10.0159 19.7661 9.86294 19.5901 9.72914 19.727C9.57622 19.4728 9.49977 19.727 9.48065 19.7856C9.42331 19.9812 9.30862 20.0398 9.1366 20.0594C9.19394 20.2549 9.32774 20.3722 9.49977 20.3722C9.74825 20.3722 9.99674 20.3722 10.2452 20.3722C10.379 20.3722 10.4746 20.294 10.551 20.1962C10.5893 20.1376 10.6466 20.0398 10.5319 20.0203L10.551 20.0594Z" fill="white"/>
<path d="M10.6656 15.7972C10.6656 15.6408 10.6465 15.4844 10.5892 15.3475H10.5701H10.5509C10.5318 15.4453 10.5509 15.5626 10.5509 15.6799C10.5509 15.6994 10.5509 15.719 10.5318 15.7385C10.4745 15.6212 10.4363 15.5039 10.4554 15.3866C10.3025 14.8001 10.0349 14.6632 9.55701 14.937C9.44232 14.9956 9.32764 15.0738 9.25118 15.1716C9.15561 15.2693 9.11738 15.3866 9.09827 15.5039C9.09827 15.5626 9.09827 15.6212 9.09827 15.6799C9.09827 15.7386 9.09827 15.7777 9.09827 15.8363C9.11738 15.9536 9.34675 15.7972 9.48055 15.8363C9.55701 15.8363 9.63346 15.8168 9.70992 15.8168C10.0157 15.8168 10.2833 15.8363 10.3789 16.2273C10.4363 16.4619 10.5892 16.5792 10.8568 16.5206C10.8568 16.5206 10.8568 16.4815 10.8759 16.4815C10.6465 16.3055 10.6465 16.0709 10.6847 15.8168L10.6656 15.7972Z" fill="white"/>
<path d="M9.0027 15.0543C9.78639 14.4287 10.3025 14.5069 10.4936 15.2694C10.4936 15.2889 10.5318 15.3085 10.551 15.328C10.551 15.328 10.5701 15.328 10.5892 15.328C10.551 15.1521 10.5127 14.9565 10.4745 14.7806C10.4363 14.6437 10.398 14.5264 10.3216 14.4678C10.2451 14.3896 10.1304 14.3505 9.97753 14.3505C9.88196 14.3505 9.76727 14.3505 9.6717 14.3896C9.44233 14.4678 9.23207 14.5851 9.04093 14.7415C8.92625 14.8197 8.92625 14.937 8.98359 15.0543H9.0027Z" fill="white"/>
<path d="M9.67173 15.9146C9.67173 15.9146 9.59528 15.9145 9.57616 15.9537C9.46148 16.1101 9.55705 16.6575 9.74819 16.853C9.74819 16.5402 9.74819 16.3056 9.74819 16.0514C9.74819 15.9928 9.74819 15.9146 9.67173 15.9146Z" fill="white"/>
<path d="M10.5128 15.6409C10.5128 15.5431 10.4746 15.4454 10.5128 15.3476C10.5128 15.3476 10.5128 15.3476 10.5319 15.3281C10.4937 15.3281 10.4937 15.289 10.4746 15.2694C10.4555 15.3085 10.4364 15.3476 10.4172 15.3867C10.4172 15.3867 10.4937 15.5627 10.4937 15.6409H10.5128Z" fill="white"/>
<path d="M13.0358 12.063C12.902 11.9066 12.8065 11.8284 12.6535 11.8284C12.6918 11.8675 12.7491 11.9066 12.8256 11.9261C12.6918 11.9066 12.5771 11.887 12.4624 11.9457C12.6535 11.887 12.8065 12.0239 13.0167 12.063H13.0358Z" fill="white"/>
<path d="M9.95848 12.7473C9.92025 12.8451 9.84379 12.7864 9.78645 12.7473C9.69088 12.6887 9.61442 12.5909 9.53796 12.5323C9.63353 12.6887 9.63354 12.6887 9.80556 12.7669C9.88202 12.806 9.97759 12.8451 10.0158 12.9233C10.0158 12.7864 10.054 12.6496 10.2643 12.63C10.3025 12.4931 10.379 12.3758 10.5128 12.2976C10.4554 12.239 10.379 12.2585 10.3599 12.2976C10.3025 12.4345 10.1687 12.4931 10.0732 12.5714C10.0732 12.5714 10.0732 12.5714 10.0732 12.5909C10.0349 12.63 10.0158 12.6691 9.99671 12.7278L9.95848 12.7473Z" fill="white"/>
<path d="M10.2643 12.63C10.2643 12.63 10.2643 12.6496 10.2643 12.6691C10.2643 12.6691 10.2643 12.6496 10.2834 12.63H10.2643Z" fill="white"/>
<path d="M27.448 0V12.7668" stroke="#F3E100" stroke-miterlimit="10"/>
<path d="M27.448 12.7668V20.118" stroke="#1818EB" stroke-miterlimit="10"/>
<path d="M27.448 19.6293V27" stroke="#D80024" stroke-miterlimit="10"/>
<path d="M38.9165 14.3114V12.7669H42.7967V16.4034C42.4144 16.7749 41.8792 17.1072 41.1529 17.3809C40.4265 17.6546 39.7193 17.8111 38.9738 17.8111C38.0372 17.8111 37.2345 17.6155 36.5463 17.205C35.8582 16.7944 35.3421 16.2274 34.979 15.4845C34.6158 14.7415 34.4629 13.9399 34.4629 13.0602C34.4629 12.1022 34.654 11.2615 35.0554 10.5381C35.4568 9.81468 36.0111 9.22815 36.7566 8.83713C37.33 8.54386 38.0372 8.38745 38.8974 8.38745C40.006 8.38745 40.8662 8.62206 41.4969 9.09129C42.1277 9.56051 42.51 10.2252 42.7011 11.0659L40.9235 11.3983C40.7897 10.9486 40.5603 10.5967 40.2163 10.3426C39.8722 10.0884 39.4326 9.95154 38.9165 9.95154C38.1328 9.95154 37.502 10.2057 37.0433 10.714C36.5846 11.2224 36.3552 11.9848 36.3552 12.9819C36.3552 14.0573 36.5846 14.8784 37.0624 15.4063C37.5403 15.9342 38.1519 16.2079 38.9165 16.2079C39.2988 16.2079 39.662 16.1297 40.0442 15.9733C40.4265 15.8169 40.7515 15.6409 41.0191 15.4258V14.2723H38.9547L38.9165 14.3114Z" fill="white"/>
<path d="M44.0964 13.1579C44.0964 12.239 44.2302 11.457 44.4978 10.8118C44.7081 10.3426 44.9757 9.93198 45.3197 9.56051C45.6638 9.18904 46.0461 8.91533 46.4666 8.73937C47.0209 8.50476 47.6708 8.38745 48.378 8.38745C49.6969 8.38745 50.7482 8.79802 51.5319 9.63872C52.3155 10.4794 52.7169 11.6329 52.7169 13.1188C52.7169 14.6047 52.3347 15.7386 51.551 16.5793C50.7673 17.42 49.716 17.8306 48.4162 17.8306C47.1165 17.8306 46.0461 17.42 45.2624 16.5989C44.4787 15.7777 44.0964 14.6438 44.0964 13.1775V13.1579ZM45.9505 13.0993C45.9505 14.1355 46.1799 14.9175 46.6577 15.4454C47.1356 15.9733 47.709 16.247 48.4354 16.247C49.1617 16.247 49.7351 15.9733 50.1939 15.4454C50.6526 14.9175 50.882 14.1159 50.882 13.0602C50.882 12.0044 50.6526 11.2419 50.213 10.714C49.7734 10.1861 49.1617 9.95154 48.4354 9.95154C47.709 9.95154 47.0974 10.2057 46.6386 10.7336C46.1799 11.2615 45.9505 12.0435 45.9505 13.0797V13.0993Z" fill="white"/>
<path d="M56.4061 17.6741L53.214 8.56335H55.1636L57.4191 15.3085L59.5981 8.56335H61.5096L58.3175 17.6741H56.4061Z" fill="white"/>
<path d="M61.2802 17.6742V15.9342H62.9813V17.6742H61.2802Z" fill="white"/>
<path d="M70.455 14.3114L72.1944 14.8784C71.9268 15.8755 71.4872 16.6184 70.8564 17.0876C70.2256 17.5569 69.442 17.811 68.4862 17.811C67.3012 17.811 66.3263 17.4005 65.5618 16.5793C64.7972 15.7582 64.4149 14.6242 64.4149 13.197C64.4149 11.672 64.7972 10.4989 65.5618 9.65825C66.3263 8.81755 67.3394 8.40698 68.5818 8.40698C69.6713 8.40698 70.5506 8.73935 71.2387 9.40409C71.6401 9.79511 71.9459 10.3621 72.1562 11.0855L70.3786 11.5156C70.2639 11.0464 70.0536 10.6749 69.7287 10.4012C69.4037 10.1275 68.9832 9.99062 68.5054 9.99062C67.8364 9.99062 67.3012 10.2252 66.8998 10.714C66.4984 11.2028 66.2881 11.9848 66.2881 13.0601C66.2881 14.2136 66.4984 15.0348 66.8998 15.5236C67.3012 16.0123 67.8364 16.2665 68.4862 16.2665C68.9641 16.2665 69.3846 16.1101 69.7287 15.7973C70.0727 15.4845 70.3212 14.9957 70.4741 14.331L70.455 14.3114Z" fill="white"/>
<path d="M73.3604 13.1579C73.3604 12.239 73.4941 11.457 73.7617 10.8118C73.972 10.3426 74.2396 9.93198 74.5837 9.56051C74.9277 9.18904 75.31 8.91533 75.7305 8.73937C76.2848 8.50476 76.9347 8.38745 77.6419 8.38745C78.9608 8.38745 80.0121 8.79802 80.7958 9.63872C81.5795 10.4794 81.9809 11.6329 81.9809 13.1188C81.9809 14.6047 81.5986 15.7386 80.8149 16.5793C80.0312 17.42 78.9799 17.8306 77.6802 17.8306C76.3804 17.8306 75.31 17.42 74.5263 16.5989C73.7426 15.7777 73.3604 14.6438 73.3604 13.1775V13.1579ZM75.2144 13.0993C75.2144 14.1355 75.4438 14.9175 75.9217 15.4454C76.3995 15.9733 76.9729 16.247 77.6993 16.247C78.4256 16.247 78.999 15.9733 79.4578 15.4454C79.9165 14.9175 80.1459 14.1159 80.1459 13.0602C80.1459 12.0044 79.9165 11.2419 79.4769 10.714C79.0373 10.1861 78.4256 9.95154 77.6993 9.95154C76.9729 9.95154 76.3613 10.2057 75.9025 10.7336C75.4438 11.2615 75.2144 12.0435 75.2144 13.0797V13.0993Z" fill="white"/>
</g>
<defs>
<clipPath id="clip0_20_1339">
<rect width="82" height="27" fill="white"/>
</clipPath>
</defs>
</svg>
