<svg width="1440" height="582" viewBox="0 0 1440 582" fill="none" xmlns="http://www.w3.org/2000/svg">
<g opacity="0.53">
<path d="M-1 581C74.7034 570.101 65.3182 447.927 98.5248 389.726C141.528 314.364 213.857 389.093 249.837 431.471C292.565 481.784 332.257 528.404 398.196 510.801C503.605 482.668 598.764 417.62 703.329 386.153C737.98 375.732 763.183 375.863 794.017 397.16C834.848 425.364 868.676 465.495 905.373 499.806C931.557 524.281 961.484 553.131 996.968 554.732C1021.54 555.843 1046.47 545.518 1068.6 534.499C1094.54 521.58 1119.08 504.789 1146.54 496.017C1174.62 487.042 1203.81 490.412 1232.13 482.716C1303.43 463.344 1365.15 412.744 1439.98 408.943" stroke="#C73F35" stroke-miterlimit="10"/>
<path d="M-1 565.643C71.2129 550.776 70.4326 443.672 107.246 387.432C153.412 316.897 219.878 383.5 258.832 426.929C301.919 474.972 342.992 520.839 407.581 503.534C512.536 475.426 606.272 407.832 710.31 376.162C744.55 365.741 771.05 365.609 801.377 387.312C840.299 415.182 871.292 455.767 905.542 490.114C930.439 515.079 959.965 544.657 995.091 545.052C1019.76 545.327 1044.52 535.862 1067.16 525.679C1093.61 513.788 1118.95 498.527 1146.6 490.233C1174.82 481.772 1203.93 485.333 1232.15 477.171C1303.97 456.412 1363.66 398.08 1439.99 396.275" stroke="#C73F35" stroke-miterlimit="10"/>
<path d="M-1 543.701C69.5995 530.794 80.5664 442.202 125.436 392.75C178.024 334.812 237.045 386.822 280.533 430.909C324.485 475.462 367.119 518.102 429.62 500.487C533.447 471.231 624.947 400.888 727.783 367.928C760.821 357.339 787.405 356.144 816.172 378.791C851.519 406.613 877.766 447.509 907.767 481.879C930.197 507.586 956.717 536.387 990.588 536.973C1015.38 537.391 1040.69 529.026 1064.05 520.397C1091.39 510.287 1117.96 497.332 1146.14 490.269C1174.69 483.11 1204.07 486.528 1232.16 476.86C1304.54 451.954 1361.54 383.667 1440 380.954" stroke="#C73F35" stroke-miterlimit="10"/>
<path d="M-1 517.553C67.7858 509.904 95.9728 440.852 149.426 402.549C208.036 360.554 261.774 396.956 310.028 439.92C355.098 480.039 399.419 518.079 459.41 499.83C561.708 468.71 650.466 395.498 751.668 360.578C782.892 349.798 809.139 346.87 835.523 370.88C866.346 398.928 886.614 439.956 911.258 474.338C930.639 501.383 952.173 527.305 984.483 529.671C1009.19 531.488 1036.03 523.648 1059.9 517.051C1088.36 509.187 1116.36 499.041 1145.33 493.639C1174.51 488.201 1204.03 491.404 1232.15 479.525C1305.01 448.74 1358.97 369.35 1439.99 363.769" stroke="#C73F35" stroke-miterlimit="10"/>
<path d="M-1 489.6C66.8789 487.592 114.469 438.773 175.515 413.7C238.29 387.91 289.402 410.533 342.338 450.473C388.673 485.429 434.481 518.772 492.016 499.758C592.658 466.499 678.453 390.407 777.883 353.264C807.061 342.365 832.992 337.357 856.518 362.896C882.628 391.232 896.347 432.522 915.191 466.738C930.481 494.512 947.427 519.095 977.776 522.345C1002.86 525.034 1030.61 518.664 1055.38 514.123C1085.05 508.685 1114.48 501.574 1144.4 497.929C1174.56 494.261 1203.73 497.44 1232.13 482.979C1305.36 445.704 1356.25 354.973 1439.98 345.615" stroke="#C73F35" stroke-miterlimit="10"/>
<path d="M-1 462.232C68.8403 464.574 132.143 435.606 200.021 423.069C264.431 411.166 316.049 423.272 372.529 459.089C419.708 489.002 467.382 518.055 522.501 498.479C621.626 463.26 704.552 384.336 802.348 345.161C829.891 334.131 855.305 327.402 876.279 354.208C898.319 382.376 905.542 424.814 918.787 458.42C929.933 486.696 942.745 510.322 971.512 514.278C997.031 517.792 1025.58 512.737 1051.14 510.131C1081.94 506.988 1112.66 502.71 1143.56 500.786C1174.76 498.838 1203.4 502.017 1232.12 485.094C1305.56 441.82 1353.66 340.238 1439.97 327.438" stroke="#C73F35" stroke-miterlimit="10"/>
<path d="M-1 437.828C72.7525 442.083 145.714 430.646 219.277 427.527C249.562 426.236 281.219 425.22 311.388 429.451C341.294 433.646 368.722 447.855 395.675 462.304C443.297 487.843 492.827 513.979 545.975 494.177C643.992 457.643 724.43 376.018 821.002 335.397C846.795 324.546 873.517 315.965 891.918 344.098C910.667 372.768 912.375 415.409 921.254 448.608C928.931 477.338 938.728 500.32 966.714 504.646C992.634 508.649 1021.68 504.55 1047.84 503.498C1079.57 502.232 1111.28 500.343 1143.03 499.734C1174.87 499.113 1203.34 502.291 1232.13 483.624C1305.66 435.976 1351.47 324.534 1439.98 310.062" stroke="#C73F35" stroke-miterlimit="10"/>
<path d="M-1 418.779C75.8633 420.416 152.727 422.209 229.59 423.93C260.223 424.611 291.796 422.758 322.25 426.989C351.85 431.1 379.499 443.672 406.79 456.627C454.391 479.202 505.64 504.55 557.469 485.046C655.053 448.321 733.688 364.151 829.733 323.124C854.609 312.5 883.355 303.058 900.512 331.908C917.648 360.709 915.56 403.792 921.75 436.609C927.339 466.224 936.06 488.56 964.384 492.671C990.588 496.483 1019.6 492.814 1046.1 492.719C1078.4 492.599 1110.7 492.384 1143 492.372C1174.66 492.372 1203.75 495.468 1232.13 476.406C1305.58 427.109 1349.96 307.253 1439.98 294.394" stroke="#C73F35" stroke-miterlimit="10"/>
<path d="M-1 406.792C73.9441 408.549 148.909 407.425 223.864 408.692C254.339 409.206 285.658 408.214 315.933 412.851C346.472 417.524 375.482 430.55 404.027 443.111C453.336 464.802 506.146 490.639 559.146 470.693C653.345 435.235 728.279 352.643 820.981 313.061C846.953 301.971 874.107 293.139 892.424 321.809C910.382 349.93 911.722 390.85 920.305 423.189C927.666 450.915 937.125 474.171 964.321 478.677C990.177 482.955 1019.76 478.677 1046.01 478.677H1143.08C1174.96 478.677 1203.53 480.816 1232.16 461.933C1305.68 413.437 1351.35 301.935 1439.96 286.208" stroke="#C73F35" stroke-miterlimit="10"/>
<path d="M-1 400.542C68.0072 402.059 136.466 393.013 205.378 391.519C272.466 390.061 329.716 402.8 392.902 428.053C444.763 448.787 503.373 477.386 558.45 456.795C644.076 424.79 710.162 346.667 794.323 310.767C821.476 299.186 845.783 293.749 867.095 318.929C888.596 344.337 897.791 382.137 912.006 412.696C923.943 438.366 937.578 460.296 964.31 464.479C990.304 468.542 1019.65 464.479 1046 464.479H1143.07C1174.68 464.479 1203.2 466.128 1232.13 449.026C1305.47 405.681 1354.38 308.46 1439.83 293.283" stroke="#C73F35" stroke-miterlimit="10"/>
<path d="M-1 398.163C60.2249 398.247 118.202 379.58 178.752 373.927C247.949 367.474 310.851 388.579 376.199 412.038C430.959 431.698 498.459 464.706 556.077 443.577C629.861 416.52 683.536 344.408 755.886 313.683C825.136 284.272 857.731 353.073 898.582 404.426C916.941 427.503 936.207 446.851 964.331 450.198C990.831 453.353 1019.31 450.198 1046.02 450.198H1143.09C1173.98 450.198 1203.05 451.859 1232.15 437.876C1304.93 402.92 1358.16 321.941 1439.69 310.886" stroke="#C73F35" stroke-miterlimit="10"/>
<path d="M-1 397.793C53.1175 396.06 96.0572 367.103 147.728 356.168C217.347 341.433 290.678 374.13 356.469 395.558C393.05 407.473 429.715 419.603 467.076 427.981C495.19 434.279 524.79 440.231 552.819 430.706C613.39 410.126 652.217 343.488 711.312 319.276C777.43 292.183 832.391 358.248 882.469 397.291C907.746 416.998 933.212 433.454 964.321 435.869C991.242 437.948 1019.01 435.869 1046.01 435.869H1143.08C1173.2 435.869 1202.94 437.769 1232.1 427.646C1304.01 402.681 1362.13 339.485 1439.47 333.963" stroke="#C73F35" stroke-miterlimit="10"/>
<path d="M-1 397.578C26.8813 395.63 49.606 388.077 72.3307 369.577C86.4717 358.068 99.2735 345.102 116.03 338.481C140.895 328.657 167.395 333.27 192.577 338.732C241.031 349.249 288.621 364.821 336.275 379.102C377.875 391.567 419.571 404.163 461.899 413.09C489.675 418.946 521.542 427.013 549.486 417.871C596.792 402.382 620.55 343.859 666.337 325.06C731.537 298.278 809.856 361.546 866.188 390.252C897.507 406.218 929.543 420.918 964.321 421.551C991.537 422.041 1018.8 421.551 1046.01 421.551C1106.18 421.551 1172.8 430.06 1232.08 417.476C1302.87 402.454 1365.8 357.805 1439.27 357.387" stroke="#C73F35" stroke-miterlimit="10"/>
<path d="M-1 395.666C25.0464 393.06 43.9538 384.958 59.1282 360.255C67.733 346.249 73.8281 330.127 87.4418 321.14C108.996 306.895 137.025 315.212 159.792 320.351C213.024 332.362 265.538 348.46 318.211 363.219C364.388 376.162 410.681 389.105 457.554 398.486C485.077 403.996 519.064 413.676 546.934 404.796C583.136 393.252 592.141 343.034 626.666 328.573C651.521 318.164 684.021 326.147 708.77 332.553C757.52 345.185 804.52 365.514 852.215 382.269C888.807 395.128 925.757 407.163 964.321 407.318C991.548 407.425 1018.79 407.318 1046.01 407.318C1107.41 407.318 1170.91 412.421 1232.07 406.565C1301.83 399.896 1368.47 373.246 1439.1 376.138" stroke="#C73F35" stroke-miterlimit="10"/>
<path d="M-1 390.204C24.8566 387.491 41.6128 378.648 49.6693 349.643C53.8346 334.645 54.2669 315.308 65.6767 304.373C83.7194 287.068 114.901 298.923 135.116 303.668C191.986 317.005 248.307 333.354 304.84 348.364C354.634 361.582 404.565 374.728 455.023 384.348C482.557 389.607 518.03 400.135 545.954 391.136C575.248 381.695 570.84 339.473 598.004 327.295C621.836 316.599 657.658 325.896 681.564 330.629C735.945 341.397 789.282 358.248 843.031 372.29C882.912 382.711 923.205 393.12 964.31 393.24C991.537 393.311 1018.78 393.24 1046 393.24C1107.96 393.24 1170.13 395.236 1232.05 394.1C1301.17 392.833 1369.74 381.839 1438.97 385.149" stroke="#C73F35" stroke-miterlimit="10"/>
<path d="M-1 379.341C25.6369 377.309 42.1611 368.525 45.8941 337.047C47.6657 322.144 44.344 300.429 54.6782 288.658C70.6013 270.516 104.62 284.989 123.127 289.506C181.821 303.835 240.156 320.053 298.734 334.979C350.595 348.197 402.593 361.247 455.087 370.844C482.862 375.923 519.127 386.559 547.188 376.64C574.668 366.936 561.371 330.713 586.236 318.654C609.804 307.229 646.407 317.627 670.175 321.917C727.446 332.254 784.094 346.775 840.995 359.335C881.562 368.286 922.847 378.564 964.321 379.329C991.537 379.831 1018.81 379.281 1046.03 379.305C1177 379.425 1307.96 379.042 1438.93 379.329" stroke="#C73F35" stroke-miterlimit="10"/>
<path d="M-1 364.665C24.2661 361.773 40.3157 353.025 44.8396 323.339C47.0541 308.783 44.7869 289.219 54.8047 277.758C70.7911 259.474 104.145 273.301 122.631 277.758C181.272 291.872 239.65 307.397 298.249 321.773C349.983 334.465 401.834 346.942 454.116 356.359C482.251 361.426 518.874 372.684 547.219 362.299C574.13 352.439 563.617 316.539 588.366 305.281C612.198 294.442 648.452 305.735 672.274 310.229C728.88 320.901 784.969 334.943 841.343 347.05C881.805 355.738 923.205 365.944 964.552 366.219C991.769 366.398 1018.94 365.657 1046.16 366.314C1107.54 367.808 1168.96 369.41 1230.33 370.079C1299.95 370.844 1369.29 361.677 1438.93 363.147" stroke="#C73F35" stroke-miterlimit="10"/>
<path d="M-1 348.567C22.8319 345.329 39.335 337.441 45.6937 309.835C48.8889 295.983 48.2878 278.822 58.4217 268.413C75.3466 251.024 107.34 263.8 126.353 268.222C184.446 281.738 242.36 296.258 300.453 309.763C351.628 321.654 402.909 333.282 454.559 342.221C483.221 347.181 519.285 358.128 548.094 347.97C574.563 338.636 567.93 303.154 592.753 293.151C617.028 283.375 652.438 295.254 676.471 299.987C732.107 310.958 787.321 324.486 842.862 336.091C882.902 344.456 924.217 354.662 965.111 354.352C992.107 354.148 1018.81 353.921 1045.78 355.606C1106.07 359.371 1166.66 364.032 1227.01 363.351C1298.1 362.55 1367.77 342.532 1438.99 343.094" stroke="#C73F35" stroke-miterlimit="10"/>
<path d="M-1 331.346C22.02 328.095 38.4809 321.427 48.2351 296.605C53.2124 283.937 54.3618 269.249 65.1073 260.501C83.9303 245.168 113.53 256.247 133.756 260.704C190.868 273.289 247.865 286.554 305.009 298.899C355.245 309.751 405.588 320.303 456.225 328.478C485.203 333.163 520.624 343.5 549.687 333.748C575.712 325.012 574.025 290.57 599.07 282.204C623.924 273.898 658.069 286.064 682.45 291.096C736.831 302.317 790.927 315.308 845.34 326.386C884.853 334.429 925.599 344.05 965.902 343.656C992.476 343.393 1018.44 343.883 1044.9 346.942C1103.6 353.742 1163.1 362.55 1222.22 359.024C1295.68 354.638 1365.26 322.192 1439.01 319.754" stroke="#C73F35" stroke-miterlimit="10"/>
<path d="M-1 313.288C21.1975 310.372 38.85 304.875 52.2001 283.734C59.1915 272.667 63.1248 260.692 74.4081 253.916C95.2558 241.404 122.779 250.606 144.322 255.004C200.074 266.393 255.773 278.153 311.599 289.1C360.581 298.696 409.658 307.97 458.978 315.177C488.209 319.443 522.66 328.729 551.922 319.718C577.716 311.771 581.575 278.858 607.063 272.357C632.54 265.855 665.187 278.093 689.989 283.459C742.894 294.896 795.63 307.337 848.693 317.842C887.531 325.538 927.392 334.358 966.967 334.071C992.982 333.88 1017.98 335.362 1043.66 340.154C1100.57 350.754 1158.21 364.331 1216.27 356.861C1292.91 347.014 1361.92 301.194 1439.1 293.773" stroke="#C73F35" stroke-miterlimit="10"/>
<path d="M-1 294.693C21.1342 292.255 40.0416 287.594 57.3566 271.293C66.6996 262.497 73.9441 253.223 85.8706 248.574C108.775 239.647 134.463 246.71 157.482 250.952C211.568 260.931 265.644 271.006 319.824 280.34C367.288 288.514 414.836 296.354 462.553 302.401C491.931 306.13 525.264 314.053 554.632 306.022C580.594 298.935 590.127 268.09 616.374 263.585C642.442 259.103 673.507 271.269 698.742 276.993C749.97 288.622 801.177 300.489 852.69 310.396C890.8 317.734 929.416 325.167 968.159 325.526C993.573 325.765 1017.35 328.203 1042.06 335.003C1097.3 350.228 1151.64 368.788 1209.27 356.598C1289.73 339.58 1357.85 280.029 1439.15 265.76" stroke="#C73F35" stroke-miterlimit="10"/>
<path d="M-1 275.87C21.8091 274.042 42.5829 270.014 63.4728 259.378C75.2939 253.355 86.1237 246.997 99.0836 244.379C123.601 239.432 148.435 244.439 172.741 248.359C224.918 256.773 277.106 265.007 329.389 272.572C375.123 279.192 420.92 285.467 466.834 290.223C496.223 293.271 528.407 299.664 557.743 292.781C584.412 286.518 599.365 258.266 626.74 255.84C653.25 253.486 682.85 265.556 708.475 271.663C757.879 283.447 807.409 294.729 857.235 304.038C894.396 310.982 931.799 317.316 969.519 318.033C994.269 318.499 1016.82 322.335 1040.23 331.394C1094 352.212 1143.42 375.672 1201.53 358.056C1286.28 332.374 1353.39 259.222 1439.24 236.396" stroke="#C73F35" stroke-miterlimit="10"/>
<path d="M-1 257.107C37.7955 255.315 75.0513 243.184 113.573 241.213C139.071 239.91 164.295 243.615 189.54 247.021C239.618 253.773 289.739 260.035 339.923 265.724C383.759 270.695 427.648 275.296 471.611 278.691C500.852 280.949 531.971 285.765 561.139 280.065C589.052 274.603 609.003 249.088 637.865 249.028C664.734 248.969 692.9 260.8 718.904 267.325C766.378 279.24 814.137 289.948 862.17 298.637C898.287 305.162 934.404 310.336 970.985 311.472C995.091 312.213 1016.4 317.603 1038.22 329.064C1090.37 356.443 1133.84 384.587 1193.23 360.937C1282.5 325.383 1348.76 239.026 1439.33 206.28" stroke="#C73F35" stroke-miterlimit="10"/>
<path d="M-1 238.703C41.9502 238.225 84.9637 236.002 127.882 238.918C200.781 243.866 273.458 253.641 346.324 259.378C388.083 262.664 429.863 265.568 471.685 267.624C503.731 269.201 537.939 273.564 569.765 267.098C597.688 261.421 620.328 241.284 649.549 243.184C678.812 245.085 708.201 258.338 736.63 265.712C776.301 275.99 816.288 284.857 856.465 292.183C896.421 299.473 935.838 302.329 976.026 305.843C998.972 307.851 1018.47 315.26 1037.99 329.147C1087.26 364.175 1126.14 394.614 1186.52 363.996C1279.23 316.981 1344.81 219.33 1439.42 175.985" stroke="#C73F35" stroke-miterlimit="10"/>
<path d="M-1 220.944C47.9082 222.043 95.2347 229.441 143.5 237.4C214.5 249.1 286.418 251.622 358.05 254.406C427.87 257.119 504.174 266.991 573.614 255.912C603.699 251.12 630.156 233.815 661.243 238.081C690.401 242.085 718.841 255.41 747.355 263.154C785.265 273.456 823.638 281.869 862.159 288.658C900.66 295.446 938.928 296.712 977.481 301.075C1000.01 303.62 1018.12 312.81 1035.63 329.016C1051.55 343.763 1065.08 361.881 1083.17 373.461C1114.5 393.527 1147.13 387.121 1177.83 368.74C1274.88 310.611 1340.43 200.914 1439.5 146.191" stroke="#C73F35" stroke-miterlimit="10"/>
<path d="M-1 204.153C53.8346 207.033 104.588 223.382 157.82 236.325C225.962 252.901 296.151 250.522 365.506 250.235C434.397 249.961 505.461 253.187 574.151 245.969C607.716 242.443 638.624 227.039 672.738 233.707C699.037 238.846 724.103 251.395 749.907 259.055C790.611 271.138 832.106 280.113 873.738 286.925C927.613 295.732 994.806 282.646 1034.79 331.43C1048.66 348.34 1059.75 368.621 1077.01 381.647C1108.61 405.525 1141.07 393.921 1171.27 372.804C1271.19 302.915 1337.02 183.239 1439.62 117.545" stroke="#C73F35" stroke-miterlimit="10"/>
<path d="M-1 188.605C59.6028 193.325 113.499 217.873 171.455 235.667C237.731 256.02 305.177 250.57 373.109 247.14C440.091 243.746 507.264 240.962 574.183 236.767C611.323 234.436 646.712 220.92 683.926 230.194C712.039 237.197 738.571 251.359 766.431 259.784C802.727 270.755 839.772 278.619 876.965 284.475C910.077 289.685 943.389 289.291 976.395 293.474C1000.57 296.533 1016.86 308.783 1031.12 330.796C1044 350.671 1053.3 374.883 1070.87 390.348C1099.62 415.66 1129.19 402.908 1157.16 382.735C1265.33 304.743 1331.29 168.683 1439.69 90.6195" stroke="#C73F35" stroke-miterlimit="10"/>
<path d="M-1 174.61C68.9457 181.41 129.222 217.526 195.624 239.396C260.993 260.931 328.355 250.427 395.127 243.519C457.881 237.042 520.276 231.688 583.146 228.007C620.771 225.796 656.878 216.163 694.229 227.17C724.092 235.966 751.9 251.956 781.827 261.075C814.053 270.887 846.985 277.782 880.055 282.766C913.335 287.785 948.113 285.24 980.992 291.084C1002.98 294.991 1016.68 308.783 1028.08 329.996C1040.29 352.738 1046.86 381.074 1065.04 399.179C1090.4 424.432 1118.19 412.791 1143.37 394.088C1259.48 307.851 1325.92 155.967 1439.79 66.0604" stroke="#C73F35" stroke-miterlimit="10"/>
<path d="M-1 162.456C73.8176 170.678 137.036 214.251 207.298 240.113C271.791 263.848 334.946 251.849 400.885 241.679C461.593 232.309 521.194 222.916 582.419 220.98C623.429 219.689 663.395 211.359 703.582 224.923C730.757 234.102 755.791 249.566 783.061 258.768C817.712 270.468 853.523 277.794 889.398 282.598C917.933 286.423 946.647 285.443 975.077 288.622C1001.93 291.621 1016.14 306.488 1027.41 333.7C1037.5 358.056 1041.95 388.412 1059.69 407.784C1084.61 434.996 1113.59 419.257 1138.31 399.131C1256.56 302.927 1323.23 143.275 1439.83 44.5249" stroke="#C73F35" stroke-miterlimit="10"/>
<path d="M-1 152.441C77.8563 161.488 143.647 211.718 216.978 240.95C280.892 266.429 340.662 253.904 405.641 240.627C467.741 227.935 527.574 216.761 590.654 214.849C631.591 213.606 671.757 208.324 711.501 223.047C740.363 233.743 766.579 251.18 795.862 261.027C824.872 270.779 854.81 276.994 884.821 281.093C916.098 285.359 948.45 282.407 979.4 287.08C1006.08 291.108 1018.06 310.42 1026.78 337.632C1034.21 360.793 1037.06 387.276 1049.73 407.939C1073.15 446.122 1107.77 426.666 1134.34 403.482C1254.2 298.935 1320.92 132.519 1439.88 26.5867" stroke="#C73F35" stroke-miterlimit="10"/>
<path d="M-1 144.876C81.5366 154.031 149.774 210.881 225.962 242.599C289.697 269.13 347.695 255.709 412.02 239.515C472.729 224.23 530.168 211.777 592.384 210.308C634.902 209.304 676.924 205.348 717.829 221.745C746.564 233.265 772.347 251.586 801.673 261.828C829.628 271.592 858.606 277.531 887.658 281.176C918.217 285.001 949.979 281.499 980.201 286.04C1007.53 290.151 1018.31 310.755 1025.68 338.899C1032.06 363.231 1033.41 391.005 1045.48 413.042C1067.45 453.197 1103.56 432.259 1129.54 408.943C1252.25 298.852 1318.39 124.668 1439.94 12.9148" stroke="#C73F35" stroke-miterlimit="10"/>
<path d="M-1 140.036C84.099 148.247 154.192 211.061 232.216 244.332C295.486 271.317 352.894 257.263 416.217 238.775C476.008 221.326 531.539 208.694 593.312 207.2C636.979 206.149 680.488 203.065 722.205 220.86C750.887 233.098 776.322 252.267 805.754 262.891C832.897 272.691 861.126 278.392 889.44 281.607C919.599 285.036 950.886 281.2 980.739 285.443C1008.79 289.422 1018.7 310.564 1025.12 339.652C1030.68 364.868 1030.82 393.682 1042.49 416.747C1063.22 457.727 1100.76 436.562 1126.22 413.508C1187.74 357.793 1234.9 279.192 1282.61 209.196C1331.22 137.885 1378.17 61.6745 1440 4.10706" stroke="#C73F35" stroke-miterlimit="10"/>
<path d="M-1 138.232C85.9972 144.255 157.62 213.319 237.088 246.829C299.662 273.217 358.578 257.418 420.815 237.436C477.147 219.342 528.744 207.595 587.185 205.85C633.584 204.464 680.225 200.639 724.345 220.418C751.309 232.512 775.099 251.311 802.685 262.174C833.171 274.185 865.175 280.232 897.285 282.993C923.964 285.287 950.897 282.921 977.481 285.228C1007.03 287.785 1018.03 305.186 1024.62 336.832C1030.47 364.916 1028.18 401.916 1044.72 425.734C1066.18 456.651 1099.85 438.498 1122.41 418.838C1185.49 363.852 1232.94 282.037 1280.62 211.072C1329.65 138.1 1376.81 59.1528 1440 0.808594" stroke="#C73F35" stroke-miterlimit="10"/>
</g>
</svg>
